<?xml version="1.0" encoding="UTF-8"?>
<svg version="1.1" xmlns="http://www.w3.org/2000/svg" width="512" height="512">
<path d="M0 0 C1.83476299 -0.00913666 1.83476299 -0.00913666 3.7065919 -0.01845789 C7.07148868 -0.03214234 10.43589317 -0.03256488 13.80078018 -0.02708292 C17.441719 -0.0243974 21.082597 -0.03897301 24.72351074 -0.05117798 C31.84549769 -0.07217138 38.96740312 -0.0767763 46.08941736 -0.07499009 C51.88326877 -0.07367921 57.67709489 -0.07750322 63.47094154 -0.08491516 C65.14390796 -0.08701451 66.81687438 -0.08911211 68.48984081 -0.09120798 C69.32269998 -0.09225151 70.15555915 -0.09329504 71.01365647 -0.09437019 C86.74499587 -0.11324854 102.47628858 -0.11222996 118.20763461 -0.10540086 C132.57128797 -0.09982912 146.93476278 -0.12063937 161.29837444 -0.15376133 C176.07485742 -0.1875687 190.85125505 -0.20265778 205.6277774 -0.1980443 C213.91240642 -0.19580647 222.19687049 -0.20094156 230.48146629 -0.22593689 C237.53614794 -0.2470415 244.59057421 -0.25045205 251.64526667 -0.2316373 C255.23829407 -0.2225348 258.83084654 -0.22116517 262.42383575 -0.24199295 C287.20085959 -0.37614263 305.13770634 2.44430141 323.39570618 20.39440918 C324.04668274 21.03249512 324.6976593 21.67058105 325.36836243 22.32800293 C340.73446685 38.57217047 340.99015158 60.10296472 340.89741516 81.04553223 C340.901205 83.49967762 340.9067105 85.95382087 340.91378784 88.40795898 C340.9262341 94.34451947 340.92024011 100.28088451 340.90511226 106.21742257 C340.88813348 113.14760925 340.89147713 120.0777442 340.89520634 127.00794528 C340.90106614 139.38070611 340.88698582 151.75336473 340.86225891 164.12609863 C340.83832806 176.10204902 340.83126315 188.07786299 340.8417511 200.05383301 C340.85318585 213.13414733 340.85506007 226.21439877 340.840653 239.29471236 C340.83912735 240.69192079 340.83760699 242.08912922 340.836092 243.48633766 C340.83533418 244.17358028 340.83457637 244.86082289 340.83379559 245.56889104 C340.82907371 250.38753228 340.83088911 255.20614522 340.83515739 260.024786 C340.84062658 266.51989727 340.82974374 273.01486252 340.80820274 279.5099411 C340.80266226 281.88623484 340.80214424 284.26254671 340.80715561 286.63884163 C340.84875721 309.20320952 338.28888006 328.09179963 321.89570618 344.89440918 C310.1328103 356.37067404 295.2111888 363.59221868 278.50549507 363.60319138 C276.46930149 363.54231885 274.43358598 363.46349904 272.39866638 363.36920166 C270.6968371 363.31249593 270.6968371 363.31249593 268.96062744 363.25464463 C266.49500467 363.17092329 264.02962971 363.07962829 261.56453705 362.98153114 C257.54793227 362.82235837 253.53111329 362.68286852 249.51353455 362.55125427 C248.47054004 362.51708315 248.47054004 362.51708315 247.40647493 362.48222169 C245.97629818 362.43548725 244.54611761 362.38886926 243.11593339 362.34236377 C240.90926493 362.27001584 238.70267243 362.19561123 236.49608064 362.12096453 C225.68220562 361.75947308 214.86837061 361.49808214 204.05046082 361.29290771 C203.26248073 361.27786838 202.47450064 361.26282905 201.66264237 361.24733397 C194.34549904 361.1086281 187.02823718 360.97711184 179.71083283 360.85294294 C174.70159205 360.76783193 169.69242183 360.67933839 164.68330383 360.58728027 C163.85186509 360.57204883 163.02042634 360.55681738 162.16379248 360.54112437 C150.46945203 360.32124188 138.78719967 359.95634138 127.10062155 359.48001784 C106.95272232 358.65954818 86.81930656 358.12903545 66.65351868 358.12878418 C65.87639027 358.12803178 65.09926186 358.12727938 64.2985841 358.12650418 C26.94627707 358.12651554 -5.88325015 359.45533303 -34.05549622 387.2333374 C-45.14313929 398.74021814 -54.74976235 411.4093891 -63.07560921 425.03128433 C-63.58007513 425.81111553 -64.08454105 426.59094673 -64.60429382 427.39440918 C-64.93429382 427.39440918 -65.26429382 427.39440918 -65.60429382 427.39440918 C-65.69592176 380.40357094 -65.7663693 333.41274219 -65.80855514 286.42183217 C-65.81355775 280.86955952 -65.81873506 275.31728704 -65.82402039 269.76501465 C-65.82506963 268.65969353 -65.82611887 267.55437242 -65.82719991 266.41555673 C-65.84458793 248.53669292 -65.87611679 230.65788076 -65.91290501 212.77904755 C-65.95035903 194.42305208 -65.97253911 176.06708358 -65.9806478 157.71105146 C-65.98612632 146.39152536 -66.0034071 135.07214524 -66.03595969 123.75266409 C-66.05716267 115.98223953 -66.06348081 108.21189004 -66.05829933 100.44143867 C-66.05574654 95.96351729 -66.05955922 91.48585035 -66.08111572 87.00797462 C-66.10075613 82.89783083 -66.10145213 78.78810964 -66.0878894 74.67794532 C-66.08621621 73.20121498 -66.09114144 71.72445694 -66.10382655 70.24778014 C-66.25433785 51.62405267 -61.91297049 34.32152502 -48.84208679 20.55505371 C-35.14226891 6.66130514 -19.48070061 -0.09231435 0 0 Z " fill="#000000" transform="translate(118.60429382324219,63.6055908203125)"/>
<path d="M0 0 C13.86 0 27.72 0 42 0 C42 38.28 42 76.56 42 116 C28.14 116 14.28 116 0 116 C0 77.72 0 39.44 0 0 Z " fill="#FFFFFF" transform="translate(235,214)"/>
<path d="M0 0 C4.02015488 2.76193847 7.16694012 6.70166489 8.68359375 11.36328125 C10.04933735 19.04375334 9.29589565 25.77043381 5.046875 32.40625 C1.14711489 36.89754676 -3.41547926 39.07771242 -9.30859375 39.625 C-16.35950458 39.88100887 -20.60825741 38.42872807 -26.640625 34.78125 C-31.17755036 30.12170503 -33.17344061 24.75729365 -33.390625 18.28125 C-33.08527558 11.48985784 -30.65660637 6.38640674 -25.953125 1.40625 C-18.13718634 -4.06490706 -8.47717897 -4.20852857 0 0 Z " fill="#FCFCFC" transform="translate(267.953125,141.59375)"/>
</svg>
