<?xml version="1.0" encoding="UTF-8"?>
<svg version="1.1" xmlns="http://www.w3.org/2000/svg" width="512" height="512">
<path d="M0 0 C30.58672551 -1.43734612 59.2373319 19.97415907 83.72851562 35.27929688 C87.49588574 37.63182604 91.27323289 39.96793649 95.05175781 42.30249023 C97.6243446 43.89228288 100.19523289 45.48478684 102.765625 47.078125 C106.1600553 49.18196462 109.55592825 51.283443 112.953125 53.3828125 C117.32477066 56.08460917 121.6937245 58.79071372 126.06103516 61.49951172 C127.95585741 62.67412096 129.85140113 63.84756693 131.74755859 65.02001953 C204.19157178 109.83597884 204.19157178 109.83597884 212.828125 142.21484375 C213.50386963 145.28491041 214.06694165 148.36334625 214.578125 151.46484375 C214.75178589 152.51599365 214.75178589 152.51599365 214.92895508 153.58837891 C217.52351281 171.40499967 216.99107701 189.64608803 216.99609375 207.59375 C216.99752268 208.95075944 216.99911981 210.30776871 217.00087929 211.66477776 C217.01008357 218.7832773 217.01422117 225.90175838 217.01342773 233.02026367 C217.01289677 238.83148981 217.01991826 244.64264845 217.03393555 250.45385742 C217.32798011 375.15169743 217.32798011 375.15169743 191.203125 403.40234375 C168.60862764 424.50516556 136.53951095 426.66864311 107.078125 427.77734375 C105.96010498 427.81980225 104.84208496 427.86226074 103.69018555 427.90600586 C86.74401039 428.46978182 69.781034 428.30020583 52.828125 428.21484375 C53.03924927 426.81528442 53.03924927 426.81528442 53.25463867 425.38745117 C53.52884644 423.52890503 53.52884644 423.52890503 53.80859375 421.6328125 C53.99059326 420.41102295 54.17259277 419.1892334 54.36010742 417.93041992 C60.80054028 366.80003511 37.89580649 308.08635802 7.04296875 268.015625 C0.57144331 259.83205579 -6.05087421 251.84448746 -13.171875 244.21484375 C-14.30882812 242.99667969 -14.30882812 242.99667969 -15.46875 241.75390625 C-21.7002531 235.29839487 -28.48510777 229.83452132 -35.60742188 224.41650391 C-37.59788433 222.88762497 -39.53605949 221.29690615 -41.484375 219.71484375 C-66.94643814 200.06732173 -97.07135203 186.88835892 -128.171875 179.21484375 C-128.96754883 179.01665039 -129.76322266 178.81845703 -130.58300781 178.61425781 C-151.9353507 173.41428273 -183.80898053 166.73548842 -204.171875 177.21484375 C-205.05488281 177.75496094 -205.93789062 178.29507813 -206.84765625 178.8515625 C-209.171875 180.21484375 -209.171875 180.21484375 -211.171875 180.21484375 C-210.56831632 150.70082406 -206.25761498 125.56774525 -184.171875 104.21484375 C-162.81147581 85.06227276 -136.19211886 71.11979542 -111.88037109 56.1940918 C-104.66198547 51.75932636 -97.47286201 47.28030991 -90.296875 42.77734375 C-26.0752553 2.57938677 -26.0752553 2.57938677 0 0 Z " fill="#000000" transform="translate(253.171875,41.78515625)"/>
<path d="M0 0 C1.5919519 0.0141394 1.5919519 0.0141394 3.21606445 0.02856445 C52.75478042 0.95517729 101.93415315 22.54825138 137.41162109 56.90039062 C138.46807522 57.92134789 139.53139417 58.93523145 140.60009766 59.94335938 C177.73360067 94.99353363 200.88198128 146.36076268 202.9375 197.375 C203.01677734 199.31439453 203.01677734 199.31439453 203.09765625 201.29296875 C203.13074695 202.63273857 203.16074773 203.97258863 203.1875 205.3125 C203.22617187 207.12041016 203.22617187 207.12041016 203.265625 208.96484375 C202.81976999 213.59855115 201.37699507 216.81445648 198.21875 220.23828125 C197.6309375 220.71652344 197.043125 221.19476563 196.4375 221.6875 C195.8496875 222.17863281 195.261875 222.66976562 194.65625 223.17578125 C190.77818867 225.8816104 186.48551849 225.84190684 181.9375 225.375 C176.26242775 223.37203332 172.63074911 219.76149821 169.9375 214.375 C169.69030639 212.13060073 169.49515752 209.88039746 169.32421875 207.62890625 C169.21259034 206.22918742 169.1001732 204.82953131 168.98706055 203.42993164 C168.92851898 202.69614288 168.86997742 201.96235413 168.80966187 201.20632935 C167.73853387 188.04602353 166.48910934 175.13747499 162.9375 162.375 C162.64649414 161.31031494 162.64649414 161.31031494 162.34960938 160.22412109 C156.90783898 140.93174939 147.85851365 122.47068769 135.9375 106.375 C135.5259668 105.80555664 135.11443359 105.23611328 134.69042969 104.64941406 C108.59997016 68.73713941 68.35383789 43.63764226 24.49609375 36.4453125 C14.94247997 34.9999625 5.41317494 33.99158622 -4.25415039 33.84082031 C-10.53628955 33.65901009 -14.42884682 32.04578167 -18.8125 27.5625 C-22.36613475 22.5281841 -23.68767468 18.61152536 -22.6640625 12.3984375 C-21.25190788 7.64846285 -18.64607933 4.44316907 -14.578125 1.69921875 C-9.66674627 -0.1507339 -5.20643214 -0.07163865 0 0 Z " fill="#000000" transform="translate(75.0625,244.625)"/>
<path d="M0 0 C1.31738159 0.0141394 1.31738159 0.0141394 2.66137695 0.02856445 C34.47797091 0.74601707 65.83433246 13.51157436 89.75 34.375 C90.70261719 35.19484375 91.65523438 36.0146875 92.63671875 36.859375 C120.52419241 61.31765569 137.73380125 96.63723841 140.5859375 133.609375 C141.45610212 148.27786426 141.45610212 148.27786426 137.75 154.375 C133.48799121 158.81837086 130.24922038 161.2111167 123.9375 161.625 C118.29575943 161.52167142 114.98469062 159.60969062 111 155.625 C106.55265244 149.20105353 106.3923748 142.45355853 105.875 134.875 C103.46131415 105.57217654 89.77743099 78.82605739 67.4375 59.5625 C48.14962991 43.55030645 24.40574536 35.53373357 -0.35766602 34.14526367 C-7.32096736 33.70253118 -11.95144183 32.72579813 -17 27.5625 C-20.55363475 22.5281841 -21.87517468 18.61152536 -20.8515625 12.3984375 C-19.42631946 7.60443818 -16.81723124 4.38604091 -12.65234375 1.69921875 C-8.29687288 0.00403549 -4.63067649 -0.07740912 0 0 Z " fill="#000000" transform="translate(73.25,308.625)"/>
<path d="M0 0 C19.05028141 8.49260513 33.42415342 24.0139775 41.6875 43 C42.42294465 44.92737218 43.13292038 46.86472848 43.8125 48.8125 C44.27269531 50.09640625 44.27269531 50.09640625 44.7421875 51.40625 C46.52936933 57.05714873 47.24336438 62.67770308 47.6875 68.5625 C47.7798291 69.62633911 47.7798291 69.62633911 47.87402344 70.71166992 C48.20950185 76.63175489 47.11909667 81.18088289 43.09375 85.7734375 C42.21203125 86.47339844 42.21203125 86.47339844 41.3125 87.1875 C40.7246875 87.66960937 40.136875 88.15171875 39.53125 88.6484375 C35.62369801 91.29491589 31.35962797 91.27931542 26.8125 90.8125 C21.65605955 88.99257984 18.94516729 86.25044532 15.8125 81.8125 C14.06893499 77.40341295 13.41953619 73.26481226 12.9375 68.5625 C11.29960472 55.03206073 5.52133286 45.12792047 -4.953125 36.37890625 C-13.04463504 30.70636163 -22.08569821 28.06977156 -31.8125 27.375 C-37.90824987 26.86982736 -41.45716195 25.46418632 -45.9375 21.1875 C-48.79917901 17.45527786 -49.87060788 13.46837653 -50.1875 8.8125 C-49.34599664 3.76347986 -47.81070804 0.43570804 -44.1875 -3.1875 C-31.2653768 -10.9671456 -13.04646499 -4.93742696 0 0 Z " fill="#000000" transform="translate(102.1875,379.1875)"/>
</svg>
