<?xml version="1.0" encoding="UTF-8"?>
<svg version="1.1" xmlns="http://www.w3.org/2000/svg" width="512" height="512">
<path d="M0 0 C2.90090387 2.03587531 5.66508054 4.2026856 8.40625 6.4453125 C9.05287598 6.97012207 9.69950195 7.49493164 10.36572266 8.03564453 C14.75577365 11.60565379 19.1155972 15.21092082 23.46435547 18.83105469 C31.08958558 25.1697549 38.80634335 31.39852457 46.50415039 37.64868164 C51.17853256 41.44484991 55.84196857 45.25409398 60.5 49.0703125 C64.12930284 52.03619439 67.76754332 54.99098082 71.40625 57.9453125 C76.78042451 62.30870186 82.14515371 66.68320952 87.5 71.0703125 C91.12930284 74.03619439 94.76754332 76.99098082 98.40625 79.9453125 C103.78042451 84.30870186 109.14515371 88.68320952 114.5 93.0703125 C117.43240059 95.46668287 120.37034272 97.85607957 123.31030273 100.24316406 C124.70358055 101.37466469 126.09632486 102.50682258 127.48852539 103.63964844 C130.50269611 106.09183075 133.51901339 108.54029403 136.55859375 110.9609375 C148.4408114 120.49337578 157.13152986 129.05803484 160.40625 144.4453125 C160.6790694 147.44334329 160.68090977 150.42211827 160.66694641 153.43104553 C160.67077196 154.31327945 160.67459751 155.19551336 160.67853898 156.10448164 C160.68882467 159.04896379 160.68488518 161.99324931 160.6809082 164.93774414 C160.68525729 167.05396708 160.6904411 169.17018844 160.69639587 171.28640747 C160.70978017 177.02850314 160.71036485 182.77053296 160.70783257 188.51264119 C160.70676185 193.31333235 160.71164915 198.11401023 160.716438 202.91469854 C160.72753256 214.24872515 160.72797175 225.58271863 160.72192383 236.91674805 C160.71589186 248.58698761 160.72817545 260.25710636 160.7494939 271.92732531 C160.76714758 281.96242954 160.77310507 291.99749547 160.76985615 302.03261465 C160.76804817 308.01895425 160.77063043 314.00520781 160.78457069 319.99153328 C160.79720468 325.62800056 160.7951524 331.26428077 160.78215981 336.90074539 C160.77980606 338.96055733 160.78248518 341.02038265 160.79078293 343.08017921 C160.85437079 360.10322981 160.56860167 375.62614816 148.23046875 388.76171875 C137.83983378 398.50630388 127.28207658 400.75328801 113.3568573 400.70600891 C111.55739945 400.71174723 111.55739945 400.71174723 109.72158891 400.71760148 C106.40876125 400.72610855 103.0961566 400.72570786 99.78333557 400.72142088 C96.2038068 400.71894783 92.6243038 400.72797505 89.04478455 400.73545837 C82.03837421 400.74819173 75.03200223 400.75000073 68.02558228 400.74765811 C62.32839911 400.74587312 56.63122757 400.74762848 50.93404579 400.75188255 C49.71650129 400.75277534 49.71650129 400.75277534 48.47435993 400.75368616 C46.82523725 400.75489795 45.17611456 400.75611208 43.52699188 400.75732853 C28.06956031 400.76819901 12.61215057 400.76604402 -2.84528222 400.75994369 C-16.97319678 400.75477606 -31.10104235 400.76602677 -45.22894327 400.78504191 C-59.74878551 400.80443414 -74.26859514 400.81267381 -88.78845042 400.80891865 C-96.93487009 400.80700857 -105.08123107 400.80947525 -113.22764015 400.82363319 C-120.16354427 400.8355657 -127.09935358 400.83693103 -134.03525905 400.82484303 C-137.57082924 400.81896717 -141.10622617 400.81781879 -144.64178467 400.82984543 C-148.48241037 400.84275743 -152.32277557 400.83220888 -156.16340637 400.8195343 C-157.26984696 400.82690859 -158.37628754 400.83428287 -159.51625663 400.84188062 C-173.25562142 400.74677483 -183.20633928 396.93188309 -192.921875 387.0859375 C-201.72342144 376.85006497 -203.74389261 365.5946974 -203.74092102 352.44612122 C-203.74459771 351.56247617 -203.7482744 350.67883112 -203.7520625 349.76840895 C-203.76304023 346.81931417 -203.76693307 343.87025468 -203.77075195 340.92114258 C-203.77702099 338.80167531 -203.78366818 336.68220913 -203.79066467 334.56274414 C-203.81165227 327.61345172 -203.822061 320.66415921 -203.83203125 313.71484375 C-203.83608056 311.31820858 -203.84019753 308.92157352 -203.84438133 306.52493858 C-203.86342007 295.26529808 -203.87765478 284.00566409 -203.8859933 272.7460106 C-203.89576596 259.76579751 -203.92209196 246.78575492 -203.96249419 233.80560189 C-203.99268441 223.76034427 -204.00746488 213.71513546 -204.01077431 203.66983336 C-204.01312111 197.67568902 -204.02203392 191.68172712 -204.04723549 185.68763161 C-204.07057247 180.04622047 -204.0747267 174.40511121 -204.06447411 168.76366425 C-204.06398004 166.69977754 -204.07026219 164.63587568 -204.08403015 162.57203484 C-204.19148465 145.50175236 -202.20142279 132.10606946 -189.90625 119.4453125 C-185.94325106 115.61033996 -181.83878682 112.0876128 -177.48828125 108.703125 C-173.83637365 105.8545385 -170.24704232 102.9328208 -166.65625 100.0078125 C-165.61283447 99.15932739 -165.61283447 99.15932739 -164.54833984 98.29370117 C-159.85779122 94.47869956 -155.17692152 90.65200724 -150.5 86.8203125 C-146.17329205 83.28450815 -141.83401221 79.76422185 -137.49609375 76.2421875 C-133.68929653 73.15051917 -129.88727888 70.05326387 -126.09375 66.9453125 C-120.90680939 62.69577079 -115.70175115 58.46875477 -110.49609375 54.2421875 C-106.68929653 51.15051917 -102.88727888 48.05326387 -99.09375 44.9453125 C-93.90680939 40.69577079 -88.70175115 36.46875477 -83.49609375 32.2421875 C-79.68929653 29.15051917 -75.88727888 26.05326387 -72.09375 22.9453125 C-71.23910156 22.24664062 -70.38445312 21.54796875 -69.50390625 20.828125 C-67.91236514 19.52498396 -66.32149355 18.22101722 -64.73388672 16.91308594 C-45.6129531 1.1631706 -25.16471292 -15.08366829 0 0 Z M-113.59375 185.4453125 C-118.28818508 191.47349362 -120.60920116 198.12965703 -120.1015625 205.77734375 C-118.77947343 212.72339631 -116.03890561 217.83638213 -110.21875 221.9453125 C-103.06463349 226.10577894 -96.67347382 227.39559066 -88.59375 225.4453125 C-82.41085048 222.75241201 -77.60812051 218.52108162 -74.58984375 212.4140625 C-71.93181904 205.6438471 -71.88431105 199.4890198 -74.7265625 192.765625 C-78.51714545 185.78515257 -83.08971444 181.94665769 -90.59375 179.4453125 C-99.27618219 178.26879081 -106.63408951 180.02548955 -113.59375 185.4453125 Z M-40.4296875 187.51953125 C-44.92318097 194.54548492 -45.2746619 201.23546048 -44.59375 209.4453125 C-42.94237647 215.61309316 -38.98348026 220.13330268 -33.59375 223.4453125 C-26.42536784 226.69719447 -19.91941954 227.25310858 -12.46484375 224.72265625 C-6.49890139 222.10760372 -2.31692035 217.96246842 0.546875 212.1171875 C2.58620156 205.77673585 2.57808454 198.02284544 -0.28125 191.9453125 C-4.26065552 185.36823949 -9.28580787 181.65170397 -16.59375 179.4453125 C-25.23710099 177.78748944 -34.5502577 180.87702651 -40.4296875 187.51953125 Z M33.90625 188.8203125 C29.74578356 195.97442901 28.45597184 202.36558868 30.40625 210.4453125 C33.09915049 216.62821202 37.33048088 221.43094199 43.4375 224.44921875 C50.2077154 227.10724346 56.3625427 227.15475145 63.0859375 224.3125 C70.06640993 220.52191705 73.90490481 215.94934806 76.40625 208.4453125 C77.42943835 200.89444149 76.17977678 194.79420567 72.49609375 188.12890625 C68.16451111 182.56666835 62.35120046 180.16989524 55.53515625 178.91796875 C46.66390161 178.40205181 39.07607339 181.49743918 33.90625 188.8203125 Z M-113.34375 260.6328125 C-117.91544057 266.34742572 -120.44836058 272.3594535 -120.1015625 279.7578125 C-118.93231559 285.94582694 -116.28835475 292.06025745 -111.51953125 296.28125 C-104.49357758 300.77474347 -97.80360202 301.1262244 -89.59375 300.4453125 C-83.42596934 298.79393897 -78.90575982 294.83504276 -75.59375 289.4453125 C-72.34186803 282.27693034 -71.78595392 275.77098204 -74.31640625 268.31640625 C-76.93145878 262.35046389 -81.07659408 258.16848285 -86.921875 255.3046875 C-96.8216813 252.12053927 -105.50428852 254.39687723 -113.34375 260.6328125 Z M-39.51171875 261.67578125 C-44.41353122 268.81309964 -45.48519129 274.83503844 -44.59375 283.4453125 C-42.55084413 290.59050036 -38.97560249 294.59412832 -32.6796875 298.38671875 C-26.52923901 301.50801377 -19.35934668 301.52194754 -12.79296875 299.64453125 C-6.29920103 296.77702532 -2.78026315 292.72427199 0.40625 286.4453125 C2.63326241 279.76427526 2.31196581 272.50907271 -0.53125 266.0703125 C-3.90123952 260.07385551 -9.14877231 256.5936384 -15.59375 254.4453125 C-24.7459905 253.47018794 -33.21470901 254.35278214 -39.51171875 261.67578125 Z M35.09375 261.5703125 C30.88421911 266.95299134 28.99893084 273.25793471 29.46875 280.0703125 C30.70228891 287.43259208 33.82209115 292.47981629 39.52734375 297.21875 C45.74362334 301.27677867 52.20619354 301.15051755 59.40625 300.4453125 C65.5070727 298.64522925 70.29003777 294.94226648 73.59765625 289.4765625 C76.43861818 283.85403157 77.58486825 278.68292293 76.40625 272.4453125 C73.95232699 265.2805738 71.06712349 259.81109795 64.23828125 256.21484375 C53.89416431 251.86987352 42.86607616 253.55154673 35.09375 261.5703125 Z " fill="#000000" transform="translate(277.59375,58.5546875)"/>
</svg>
