<?xml version="1.0" encoding="UTF-8"?>
<svg version="1.1" xmlns="http://www.w3.org/2000/svg" width="512" height="512">
<path d="M0 0 C0.75909668 0.37334473 1.51819336 0.74668945 2.30029297 1.13134766 C16.14983916 8.01831107 29.41200054 15.86470066 42.66900635 23.81674194 C48.62509544 27.38478517 54.62263355 30.88064647 60.6206665 34.37753296 C166.76596069 96.30423875 166.76596069 96.30423875 178.2578125 137.74609375 C186.16977176 172.4337888 177.48316515 210.08503442 172.58099365 244.71130371 C172.05960145 248.40641922 171.54504786 252.10247308 171.03049278 255.79854584 C168.4257677 274.49342641 165.71958423 293.1687406 162.76953125 311.8125 C162.64713766 312.58622452 162.52474407 313.35994904 162.39864159 314.15711975 C153.41534745 370.77836854 153.41534745 370.77836854 142 394 C141.51789063 395.01449219 141.03578125 396.02898437 140.5390625 397.07421875 C137.50021346 403.09315455 133.78932229 407.83878368 129.15234375 412.72265625 C127.33232677 414.64837294 125.69757792 416.60775499 124.0625 418.6875 C105.76254495 439.91346412 72.99452063 443.68686903 47 446 C29.01192471 447.27529934 10.96577405 447.14983527 -7.05628204 447.1343255 C-11.01457276 447.13174265 -14.9728615 447.13415554 -18.93115234 447.13571167 C-25.57064233 447.13751645 -32.2101211 447.13517199 -38.84960938 447.13037109 C-46.45849953 447.12493178 -54.06736286 447.12669565 -61.67625237 447.1321975 C-68.28169416 447.13677737 -74.88712801 447.13735563 -81.49257088 447.13475883 C-85.40592003 447.13322255 -89.3192567 447.13292749 -93.23260498 447.13629532 C-138.48774414 447.1699124 -138.48774414 447.1699124 -157.875 444.6875 C-159.43130127 444.49184448 -159.43130127 444.49184448 -161.01904297 444.29223633 C-184.35999023 441.20336542 -204.70062025 434.60850995 -222 418 C-222.78632813 417.27683594 -223.57265625 416.55367188 -224.3828125 415.80859375 C-248.4550919 393.00112903 -253.91656784 355.58711866 -258.8515625 324.37890625 C-259.19384239 322.24766366 -259.5362633 320.11644372 -259.8788147 317.98524475 C-263.31586974 296.46663765 -266.44161662 274.90317929 -269.47509766 253.32446289 C-270.23304241 247.93387544 -271.0021919 242.54494951 -271.77411461 237.15634823 C-272.38474397 232.88328639 -272.98886341 228.60932206 -273.5912056 224.33508492 C-273.87211745 222.34782823 -274.1550431 220.3608548 -274.44031906 218.37421989 C-279.12449106 185.68394797 -283.75509896 152.0763347 -270 121 C-269.57074219 120.01644531 -269.14148438 119.03289062 -268.69921875 118.01953125 C-264.65168218 109.74536357 -258.4039585 103.48336282 -252 97 C-251.45182617 96.42991211 -250.90365234 95.85982422 -250.33886719 95.27246094 C-246.20773382 91.02910663 -241.84797164 87.31755706 -237.125 83.75 C-236.38161377 83.18700195 -235.63822754 82.62400391 -234.87231445 82.04394531 C-210.42672186 63.75037745 -183.09482974 48.99051211 -156.84068298 33.46209717 C-152.49115493 30.88787505 -148.1512566 28.2980662 -143.81640625 25.69921875 C-129.41566508 17.07563927 -114.8984453 8.73808458 -100 1 C-99.26861816 0.6198877 -98.53723633 0.23977539 -97.78369141 -0.15185547 C-65.35834348 -16.7614943 -32.3361491 -15.97256737 0 0 Z M-124.73683167 52.85066223 C-129.84239008 55.9106932 -134.96669807 58.93842482 -140.09326172 61.96313477 C-154.05710472 70.20708266 -167.93950248 78.57948187 -181.77587891 87.03515625 C-184.76500964 88.85679218 -187.76199788 90.66462693 -190.76171875 92.46875 C-199.54587769 97.78233926 -208.08561553 103.31280718 -216.375 109.375 C-217.14207275 109.93405029 -217.90914551 110.49310059 -218.69946289 111.0690918 C-232.15239808 121.11361152 -241.97681576 133.85392092 -245.3125 150.625 C-249.75877254 183.92929145 -240.87314006 220.10515638 -236.13201904 252.97491455 C-235.4571683 257.66686165 -234.78963023 262.35983749 -234.12194538 267.05280876 C-228.45104127 310.26052029 -228.45104127 310.26052029 -219.5625 352.875 C-219.26593506 354.02863037 -218.96937012 355.18226074 -218.66381836 356.37084961 C-213.77504396 374.88758877 -206.86783377 391.33482346 -189.94921875 401.90625 C-161.06231581 417.63245321 -122.5280189 414.16162741 -90.77828574 414.16725707 C-88.48000912 414.16797871 -86.18173811 414.17013348 -83.88346291 414.17275429 C-75.7988511 414.1819486 -67.71425553 414.18609696 -59.62963867 414.18530273 C-52.20215083 414.18470461 -44.77473623 414.19521965 -37.34726685 414.2110464 C-30.88181409 414.22431115 -24.41638468 414.22947882 -17.9509185 414.22884732 C-14.12887557 414.22859766 -10.30689784 414.23114153 -6.484869 414.24202538 C9.32705075 414.28383619 25.07336963 414.04336059 40.86010742 413.0949707 C41.54070304 413.05501933 42.22129865 413.01506795 42.92251837 412.97390592 C65.81828974 411.59683366 88.33118413 408.85943259 104.6875 391.1875 C121.23381612 371.09554471 124.68865575 341.89636824 128.5625 316.9375 C128.7210849 315.9318399 128.8796698 314.92617981 129.0430603 313.89004517 C132.52713417 291.77911263 135.72306239 269.62343842 138.91175461 247.46834183 C139.30717278 244.72446648 139.70432399 241.98084671 140.10183716 239.23727417 C152.02981292 180.8225541 152.02981292 180.8225541 136.79394531 126.33642578 C124.64953112 110.80319442 106.5822357 100.83228059 89.96972656 90.796875 C86.79360568 88.8751182 83.62682613 86.93856341 80.4609375 85 C65.4363942 75.81180869 50.29086221 66.84315933 35.07756042 57.97169495 C30.45831334 55.27502775 25.86201966 52.54112252 21.26904297 49.80004883 C-37.59122777 14.73130553 -67.05296424 18.26688443 -124.73683167 52.85066223 Z " fill="#000000" transform="translate(305,39)"/>
<path d="M0 0 C4.66662319 2.6507106 6.71720038 4.98227198 8.6875 10.08203125 C9.09822902 14.14475255 9.03645401 18.18194967 8.98046875 22.26171875 C8.97622391 23.42961945 8.97197906 24.59752014 8.96760559 25.80081177 C8.950854 29.51978911 8.91320698 33.23821852 8.875 36.95703125 C8.85994867 39.48306507 8.84626105 42.00910742 8.83398438 44.53515625 C8.80096192 50.7176339 8.75079691 56.89979342 8.6875 63.08203125 C9.65683472 63.06537666 9.65683472 63.06537666 10.64575195 63.04838562 C17.39439013 62.93744677 24.14276769 62.86222061 30.89208984 62.80737305 C33.40814747 62.78228692 35.92413263 62.74821 38.43994141 62.70483398 C42.06430986 62.64392625 45.68771169 62.61576105 49.3125 62.59375 C50.43052002 62.56794357 51.54854004 62.54213715 52.70043945 62.51554871 C59.61343662 62.51308691 64.4079831 63.42239459 69.6875 68.08203125 C73.52517387 73.1189782 73.50465825 78.98966253 72.6875 85.08203125 C70.50223658 89.53349376 67.7480479 92.2708827 63.6875 95.08203125 C60.68383486 96.08325296 58.71010407 96.20315136 55.57348633 96.19555664 C54.53263382 96.19548111 53.49178131 96.19540558 52.41938782 96.19532776 C51.29743515 96.19016647 50.17548248 96.18500519 49.01953125 96.1796875 C47.86958176 96.17827255 46.71963226 96.1768576 45.53483582 96.17539978 C41.85653092 96.16979554 38.17828655 96.15724229 34.5 96.14453125 C32.00846442 96.1395168 29.51692789 96.1349538 27.02539062 96.13085938 C20.91273971 96.11982472 14.80012418 96.10308243 8.6875 96.08203125 C8.70082367 97.0580278 8.70082367 97.0580278 8.7144165 98.05374146 C8.80300834 104.83456627 8.86328373 111.61522629 8.90722656 118.39648438 C8.92732405 120.92617472 8.95460668 123.45581871 8.98925781 125.98535156 C9.03785556 129.62446542 9.06048812 133.26296425 9.078125 136.90234375 C9.10909271 138.59485764 9.10909271 138.59485764 9.14068604 140.32156372 C9.14246721 146.57463163 8.92580146 150.3524589 4.6875 155.08203125 C0.1648441 159.16345243 -3.10396353 160.40567661 -9.2578125 160.29296875 C-14.02585617 159.80347377 -17.10362677 157.55022168 -20.125 154.01953125 C-22.96002292 150.21250047 -23.43705657 148.64490534 -23.42602539 143.98974609 C-23.42594986 142.9287973 -23.42587433 141.86784851 -23.42579651 140.77474976 C-23.42063522 139.62576202 -23.41547394 138.47677429 -23.41015625 137.29296875 C-23.4087413 136.11940826 -23.40732635 134.94584778 -23.40586853 133.73672485 C-23.40025689 129.9768014 -23.38770238 126.2169368 -23.375 122.45703125 C-23.3699865 119.91276127 -23.36542333 117.36849037 -23.36132812 114.82421875 C-23.35028368 108.57680272 -23.33353418 102.32942119 -23.3125 96.08203125 C-24.26970444 96.092024 -24.26970444 96.092024 -25.24624634 96.10221863 C-31.89734857 96.16866974 -38.54835624 96.21387259 -45.19970703 96.24682617 C-47.6808658 96.26189787 -50.16199799 96.28235871 -52.64306641 96.30834961 C-56.21263189 96.34480292 -59.78184461 96.36177417 -63.3515625 96.375 C-65.01126572 96.39822578 -65.01126572 96.39822578 -66.70449829 96.42192078 C-73.12324429 96.42331844 -78.0350247 96.14152719 -82.95703125 91.546875 C-87.54008879 85.5536459 -88.03706342 81.5760872 -87.3125 74.08203125 C-85.85635207 69.2749887 -82.94838109 66.28456915 -78.54342651 63.89147949 C-73.87630383 62.19810491 -68.93662271 62.60131263 -64.03515625 62.69140625 C-62.8686705 62.69706604 -61.70218475 62.70272583 -60.50035095 62.70855713 C-56.79147513 62.73086541 -53.08358159 62.78105418 -49.375 62.83203125 C-46.85352962 62.8521033 -44.33204403 62.87035283 -41.81054688 62.88671875 C-35.6441987 62.93071215 -29.47841955 62.99756988 -23.3125 63.08203125 C-23.32138245 62.43358749 -23.33026489 61.78514374 -23.3394165 61.11705017 C-23.42808803 54.35229327 -23.4883167 47.58770218 -23.53222656 40.82250977 C-23.55230963 38.29965506 -23.57958157 35.77684672 -23.61425781 33.25415039 C-23.66291913 29.62244202 -23.68550265 25.99135054 -23.703125 22.359375 C-23.72377014 21.2361937 -23.74441528 20.11301239 -23.76568604 18.95579529 C-23.76754684 12.42365792 -23.28133038 8.35639794 -19.3125 3.08203125 C-13.4846845 -1.46366484 -7.04757738 -2.79760251 0 0 Z " fill="#000000" transform="translate(263.3125,197.91796875)"/>
</svg>
