<?xml version="1.0" encoding="UTF-8"?>
<svg version="1.1" xmlns="http://www.w3.org/2000/svg" width="512" height="512">
<path d="M0 0 C6.03858102 3.62395919 12.12176039 7.1704465 18.20526123 10.71827698 C31.33390116 18.37984973 44.36312625 26.19333102 57.30233765 34.17118835 C58.32263062 34.797995 59.34292358 35.42480164 60.39413452 36.07060242 C91.9480144 55.47866576 125.60754921 76.37006075 135.5249939 114.5500946 C139.41250107 132.65923604 138.68106714 150.61750607 136.6968689 168.89775085 C136.61011209 169.72072285 136.52335529 170.54369484 136.4339695 171.39160538 C134.26772063 191.87749234 131.36915594 212.2597987 128.40939331 232.64341736 C127.85109685 236.50609137 127.30272497 240.37014802 126.754179 244.23421669 C123.93279734 264.08220855 120.93982769 283.89240993 117.5718689 303.65556335 C117.42853308 304.50020519 117.28519726 305.34484703 117.13751793 306.21508408 C111.10082994 341.64127157 103.1697894 379.49408329 72.5015564 402.24931335 C69.81627888 403.9964529 67.10049146 405.61209972 64.30233765 407.17118835 C63.13831421 407.84407898 63.13831421 407.84407898 61.95077515 408.53056335 C39.51809289 420.68472565 12.05245803 422.0903033 -12.88516235 422.72587585 C-13.68199432 422.74681179 -14.47882629 422.76774773 -15.29980469 422.78931808 C-38.25664273 423.37440413 -61.2203458 423.32262873 -84.18301392 423.30155945 C-90.44142282 423.29586277 -96.69978918 423.29925152 -102.95819664 423.30500031 C-125.5132706 423.32256975 -148.06340918 423.31726146 -170.61172485 422.71025085 C-171.38044922 422.6897681 -172.14917358 422.66928535 -172.94119263 422.64818192 C-206.80987215 421.71390181 -240.3515474 417.72025567 -265.69766235 393.17118835 C-266.24478882 392.6626532 -266.79191528 392.15411804 -267.35562134 391.63017273 C-271.80303605 387.3870348 -275.11779608 382.94109114 -278.26016235 377.67118835 C-278.73340942 376.88365173 -279.20665649 376.09611511 -279.69424438 375.28471375 C-289.65375185 358.31317929 -294.47284106 339.04504291 -298.09609985 319.85087585 C-298.31313631 318.72008417 -298.31313631 318.72008417 -298.53455734 317.56644821 C-302.24418234 298.17665757 -305.09188937 278.65575555 -307.91317749 259.12077332 C-308.45823093 255.3610501 -309.01165777 251.60258076 -309.56525517 247.84410763 C-312.34192215 228.98445921 -315.02036554 210.11342007 -317.5140686 191.2141571 C-317.66899969 190.04423658 -317.66899969 190.04423658 -317.8270607 188.8506813 C-322.39508588 154.24983056 -327.42987387 115.44322849 -305.69766235 85.17118835 C-302.02294995 80.5252924 -297.91410307 76.32222686 -293.69766235 72.17118835 C-293.22344849 71.69584656 -292.74923462 71.22050476 -292.26065063 70.73075867 C-277.64336301 56.18978824 -259.69844643 45.88750543 -242.17422485 35.27861023 C-238.71738025 33.18539041 -235.26965029 31.07746073 -231.82266235 28.96806335 C-216.25144028 19.45013151 -200.54967275 10.16869184 -184.78359985 0.97782898 C-182.18441303 -0.54384685 -179.59379246 -2.0778154 -177.01016235 -3.62568665 C-108.50712021 -44.64429995 -67.40246022 -40.50436725 0 0 Z M-174.18545532 33.07841492 C-177.81226696 35.24537225 -181.45783504 37.37948768 -185.1078186 39.50712585 C-185.72509323 39.86695557 -186.34236786 40.22678528 -186.97834778 40.59751892 C-188.22328454 41.3231061 -189.46823386 42.04867173 -190.7131958 42.7742157 C-202.33939266 49.5548123 -213.86544935 56.47748717 -225.26113892 63.64042664 C-227.75475179 65.20705516 -230.2532967 66.76559943 -232.75234985 68.3235321 C-266.90189146 88.80745386 -266.90189146 88.80745386 -286.79922485 121.96025085 C-290.48392135 139.14402235 -288.68242038 156.59523892 -286.51016235 173.85868835 C-286.32550415 175.36649872 -286.32550415 175.36649872 -286.13711548 176.9047699 C-283.32525419 199.77955878 -279.97232814 222.58361312 -276.62472153 245.38490677 C-276.20364442 248.25540835 -275.78435191 251.12616632 -275.36529541 253.9969635 C-269.76910925 320.01604944 -269.76910925 320.01604944 -237.93984985 374.61650085 C-217.77809225 388.59625613 -192.01514082 389.08094063 -168.38516235 389.72587585 C-167.63690186 389.74681179 -166.88864136 389.76774773 -166.1177063 389.78931808 C-143.78624242 390.39349925 -121.44559868 390.32234829 -99.1078186 390.30155945 C-92.93666529 390.29586275 -86.76555511 390.29925129 -80.59440327 390.30499935 C-58.69172803 390.32231521 -36.79233629 390.33671716 -14.8968811 389.7141571 C-13.81823036 389.68383329 -13.81823036 389.68383329 -12.7177887 389.65289688 C12.95594148 388.90427748 40.07654904 387.68448676 60.0484314 369.5891571 C78.99925632 349.3030437 81.87195721 317.48028988 86.07577515 291.4485321 C86.26762201 290.26387548 86.26762201 290.26387548 86.46334457 289.05528641 C89.37944014 271.01076043 92.05318003 252.93226478 94.66220093 234.84111023 C95.17202183 231.30700953 95.68576518 227.77351578 96.20321655 224.24052429 C98.90784817 205.77070733 101.5086933 187.29880664 103.6421814 168.7532196 C103.76810102 167.67031458 103.76810102 167.67031458 103.89656448 166.56553268 C106.5658986 143.44232115 107.67783546 120.65807859 92.9624939 101.05400085 C79.66986218 85.66253255 61.45898458 75.62883939 44.30233765 65.17118835 C42.0535666 63.79240138 39.80486979 62.4134933 37.5562439 61.0344696 C24.21584643 52.87055773 10.7777307 44.88172961 -2.73086548 36.9995575 C-8.80862943 33.45316816 -14.87029837 29.88583832 -20.88516235 26.23368835 C-28.29949408 21.76442219 -35.84709802 17.55274617 -43.44668579 13.40751648 C-45.63649422 12.20478439 -47.81204307 10.9791334 -49.98672485 9.74931335 C-96.8792832 -16.39605205 -132.44086823 8.05424979 -174.18545532 33.07841492 Z " fill="#000000" transform="translate(347.6976623535156,62.82881164550781)"/>
<path d="M0 0 C1.17473877 -0.01134979 2.34947754 -0.02269958 3.55981445 -0.03439331 C4.83994415 -0.03146271 6.12007385 -0.0285321 7.43899536 -0.0255127 C8.80767509 -0.03285622 10.17634862 -0.04144328 11.54501343 -0.05117798 C15.25586777 -0.0733743 18.96649994 -0.07632559 22.67741156 -0.07443047 C25.77871228 -0.07431067 28.87996609 -0.08287879 31.98125374 -0.09120798 C39.30020733 -0.11043566 46.61904687 -0.11332837 53.9380188 -0.10656738 C61.48001034 -0.09992835 69.0215126 -0.12278644 76.56340492 -0.15988111 C83.04596802 -0.19060464 89.52837395 -0.20193525 96.01100838 -0.1980443 C99.87954774 -0.19597934 103.7477064 -0.20141622 107.61617661 -0.22593689 C111.25584795 -0.24824556 114.89472555 -0.24629314 118.53440094 -0.22600937 C120.49993159 -0.22098883 122.4654773 -0.24058869 124.4309082 -0.26101685 C131.69836294 -0.19200554 135.77155237 0.33837026 141.13088989 5.39440918 C144.66800735 9.93177707 144.69324188 13.8554965 144.54885864 19.44519043 C143.94129863 23.73217929 142.35709173 26.53464015 139.13088989 29.39440918 C135.36803637 32.02934331 132.83813552 32.7720678 128.26177979 32.78881836 C127.08704102 32.80016815 125.91230225 32.81151794 124.70196533 32.82321167 C123.42183563 32.82028107 122.14170593 32.81735046 120.82278442 32.81433105 C119.4541047 32.82167458 118.08543116 32.83026164 116.71676636 32.83999634 C113.00591201 32.86219266 109.29527984 32.86514395 105.58436823 32.86324883 C102.48306751 32.86312902 99.38181369 32.87169715 96.28052604 32.88002634 C88.96157245 32.89925402 81.64273291 32.90214673 74.32376099 32.89538574 C66.78176944 32.88874671 59.24026719 32.9116048 51.69837487 32.94869947 C45.21581176 32.979423 38.73340583 32.99075361 32.2507714 32.98686266 C28.38223204 32.9847977 24.51407339 32.99023458 20.64560318 33.01475525 C17.00593184 33.03706392 13.36705423 33.03511149 9.72737885 33.01482773 C7.7618482 33.00980719 5.79630248 33.02940705 3.83087158 33.04983521 C-3.43658315 32.9808239 -7.50977259 32.4504481 -12.86911011 27.39440918 C-16.40622757 22.85704129 -16.4314621 18.93332186 -16.28707886 13.34362793 C-15.67951885 9.05663907 -14.09531194 6.25417821 -10.86911011 3.39440918 C-7.10625658 0.75947505 -4.57635573 0.01675056 0 0 Z " fill="#000000" transform="translate(191.86911010742188,367.6055908203125)"/>
</svg>
