<?xml version="1.0" encoding="UTF-8"?>
<svg version="1.1" xmlns="http://www.w3.org/2000/svg" width="512" height="512">
<path d="M0 0 C2.48178751 -0.00678486 4.96356998 -0.01569285 7.44534302 -0.02655029 C13.45745518 -0.046896 19.46913342 -0.04403866 25.48122811 -0.02948709 C30.37210407 -0.01814454 35.2628927 -0.01668547 40.15377808 -0.02210617 C41.20228224 -0.02325542 41.20228224 -0.02325542 42.27196831 -0.02442788 C43.69246462 -0.02602669 45.1129609 -0.02764776 46.53345716 -0.02929084 C59.81929572 -0.04351126 73.10496112 -0.02721411 86.39077127 -0.00028901 C97.76353049 0.02204646 109.13603444 0.01816528 120.50878906 -0.00488281 C133.75062916 -0.03170666 146.99231792 -0.04213831 160.2341814 -0.02682149 C161.64913239 -0.02522893 163.06408339 -0.02365707 164.47903442 -0.02210617 C165.17501863 -0.02133479 165.87100284 -0.02056342 166.58807749 -0.01976866 C171.46686719 -0.01547135 176.34556002 -0.02269544 181.22433472 -0.03450394 C187.80404457 -0.05008096 194.38334999 -0.03881796 200.9630394 -0.01003265 C203.36954835 -0.00345359 205.77609805 -0.00526459 208.18259048 -0.01634598 C225.14445603 -0.08721678 239.21036246 0.59151353 252.31640625 12.64697266 C252.92871094 13.14583984 253.54101562 13.64470703 254.171875 14.15869141 C262.1813339 21.17801852 266.79533818 32.28574139 268.31640625 42.64697266 C268.59069642 47.57734792 268.57000664 52.50209172 268.54345703 57.43823242 C268.54289199 58.91737358 268.54321129 60.3965153 268.54434204 61.87565613 C268.54491293 65.86678132 268.53320159 69.85778488 268.51919413 73.84888196 C268.50664257 78.02888186 268.50551279 82.20888492 268.50314331 86.38890076 C268.4969415 94.29347165 268.48054835 102.19798685 268.46044433 110.10253328 C268.43804478 119.10619041 268.42708172 128.10985029 268.41705346 137.11352837 C268.39618091 155.62470798 268.36103032 174.13583583 268.31640625 192.64697266 C268.99912598 192.62739502 269.6818457 192.60781738 270.38525391 192.58764648 C271.2829248 192.57241943 272.1805957 192.55719238 273.10546875 192.54150391 C273.99443848 192.52192627 274.8834082 192.50234863 275.79931641 192.48217773 C280.75998405 192.80695471 283.44524085 195.68162721 286.62890625 199.20947266 C289.57808612 203.46939913 289.8342821 207.6024783 289.31640625 212.64697266 C287.31343957 218.32204491 283.70290446 221.95372355 278.31640625 224.64697266 C276.16962875 224.75754646 274.01942877 224.80351651 271.86987305 224.82055664 C271.20771286 224.82724365 270.54555267 224.83393066 269.86332703 224.84082031 C268.42176349 224.85488653 266.98017747 224.86677557 265.53857994 224.87676811 C263.24543187 224.8932112 260.95244554 224.91645899 258.65937805 224.94166565 C252.13782903 225.01228805 245.61620793 225.07205701 239.09448242 225.1237793 C235.10443889 225.15590328 231.11457205 225.19727566 227.12467384 225.24397469 C225.61430925 225.25981902 224.10390392 225.27221975 222.59348106 225.28088188 C204.84229228 224.73469505 204.84229228 224.73469505 189.31640625 231.64697266 C188.51203125 232.31470703 187.70765625 232.98244141 186.87890625 233.67041016 C186.03328125 234.44642578 185.18765625 235.22244141 184.31640625 236.02197266 C183.82930176 236.46895508 183.34219727 236.9159375 182.84033203 237.37646484 C179.13128786 240.8305881 175.5559306 244.4068088 171.99609375 248.01416016 C171.52190002 248.4937619 171.0477063 248.97336365 170.55914307 249.46749878 C168.16514651 251.8899917 165.78096491 254.32031235 163.41015625 256.765625 C156.3092288 263.98481647 148.92087403 270.57151703 139.44140625 274.45947266 C138.55710937 274.83716797 137.6728125 275.21486328 136.76171875 275.60400391 C126.26322461 278.78211948 115.81292073 278.96306656 104.94482422 278.90771484 C102.45255032 278.89702048 99.96100175 278.90765203 97.46875 278.92041016 C71.11121853 278.94459872 54.55178812 272.6263569 35.62890625 254.08447266 C33.38208129 251.80651386 31.26867851 249.45476828 29.19140625 247.02197266 C25.8513786 243.17565122 22.3687649 239.48390686 18.81640625 235.83447266 C18.28257324 235.27099121 17.74874023 234.70750977 17.19873047 234.12695312 C8.63335685 225.43619435 -1.50479442 225.64327836 -13.0793457 225.50512695 C-15.13842408 225.49205172 -17.19744269 225.48367028 -19.25655556 225.47830772 C-21.47290065 225.47102371 -23.68903906 225.45527873 -25.90531921 225.43696594 C-32.19767707 225.38500287 -38.48990206 225.33645962 -44.7824707 225.32104492 C-48.65333028 225.31094891 -52.52363687 225.28160991 -56.39427757 225.23972511 C-57.86017867 225.22745993 -59.32615783 225.22228564 -60.79210854 225.22452354 C-62.84027848 225.22688456 -64.88685995 225.204663 -66.93481445 225.17700195 C-68.09632523 225.17113571 -69.257836 225.16526947 -70.45454407 225.15922546 C-75.52292449 224.3551833 -78.61614501 221.82982126 -81.99609375 218.08447266 C-84.94527362 213.82454618 -85.2014696 209.69146701 -84.68359375 204.64697266 C-82.68062707 198.9719004 -79.07009196 195.34022176 -73.68359375 192.64697266 C-71.9765664 192.57701252 -70.26691372 192.56257112 -68.55859375 192.58447266 C-67.64851563 192.59349609 -66.7384375 192.60251953 -65.80078125 192.61181641 C-64.75277344 192.62921875 -64.75277344 192.62921875 -63.68359375 192.64697266 C-63.68635913 191.89012806 -63.68912451 191.13328346 -63.69197369 190.35350418 C-63.75836154 171.89807814 -63.80793646 153.44267608 -63.83903027 134.98715591 C-63.85446847 126.06203154 -63.87549941 117.13698711 -63.90991211 108.21191406 C-63.9399081 100.42859044 -63.95919088 92.64532474 -63.96585923 84.86194491 C-63.96975429 80.74453223 -63.97884394 76.62728519 -64.00078392 72.50992584 C-64.02131066 68.62591617 -64.02739526 64.74213868 -64.02291679 60.85807991 C-64.02373482 59.44083197 -64.02960341 58.02357539 -64.04121017 56.60637474 C-64.15904047 41.46245268 -61.00309961 29.03595278 -52.49609375 16.39697266 C-36.73621391 0.98731237 -20.90832427 -0.09627842 0 0 Z M-25.43359375 36.89697266 C-30.71651048 43.35387089 -31.08384339 48.47021691 -30.87109375 56.52197266 C-30.85755859 57.49650391 -30.84402344 58.47103516 -30.83007812 59.47509766 C-30.79491337 61.86630129 -30.74570045 64.25634241 -30.68359375 66.64697266 C-29.90652573 66.48459169 -29.1294577 66.32221073 -28.32884216 66.15490913 C-23.64965412 65.50290136 -19.07805544 65.50910127 -14.35961914 65.51998901 C-13.32150369 65.51842902 -12.28338823 65.51686903 -11.21381474 65.51526177 C-7.73627871 65.51127407 -4.25878635 65.51443281 -0.78125 65.51757812 C1.7123314 65.5162231 4.20591259 65.51444259 6.69949341 65.51226807 C12.76869485 65.50817964 18.83787916 65.50878076 24.90707994 65.51168071 C29.84014376 65.51394011 34.77320412 65.51424493 39.70626831 65.51315689 C40.40866479 65.51300366 41.11106127 65.51285042 41.83474249 65.51269255 C43.2616969 65.51237282 44.6886513 65.51204861 46.11560571 65.51171996 C59.49266545 65.50886917 72.86971833 65.5121459 86.24677694 65.51752032 C97.72213858 65.521988 109.1974901 65.52121195 120.67285156 65.51660156 C134.00241163 65.51124872 147.33196569 65.50914383 160.66152668 65.51221383 C162.08319918 65.51253237 163.50487169 65.51284674 164.92654419 65.51315689 C165.626014 65.51331117 166.32548381 65.51346544 167.04614967 65.51362439 C171.97265227 65.51448741 176.89915106 65.51303129 181.82565308 65.51067734 C188.45762564 65.50757812 195.08958206 65.50978819 201.7215538 65.51557159 C204.15722497 65.51689515 206.59289774 65.51651191 209.02856827 65.51430893 C212.34987788 65.51158162 215.67112596 65.51499804 218.99243164 65.51998901 C220.44252829 65.51664293 220.44252829 65.51664293 221.92191982 65.51322925 C226.50253305 65.52660517 230.80960322 65.70520309 235.31640625 66.64697266 C235.4040818 63.27213853 235.45702253 59.8976005 235.50390625 56.52197266 C235.52904297 55.57064453 235.55417969 54.61931641 235.58007812 53.63916016 C235.65301724 46.63700501 234.58940727 42.42508501 230.06640625 36.89697266 C224.27642187 32.15971271 217.7180864 32.35725868 210.56225586 32.39300537 C209.59749549 32.38988539 208.63273512 32.38676541 207.63873959 32.38355088 C204.41534704 32.37559205 201.19214385 32.38188635 197.96875 32.38818359 C195.65398041 32.3854728 193.33921168 32.38191137 191.02444458 32.37756348 C184.74357614 32.3684478 178.46277342 32.37198039 172.18190384 32.37832165 C165.60816521 32.38338585 159.03443221 32.37868902 152.46069336 32.37554932 C140.7143149 32.37127815 128.96796407 32.37789243 117.2215904 32.38806799 C106.57772515 32.39700311 95.93390353 32.39545095 85.29003906 32.38623047 C72.9207217 32.37552025 60.55143215 32.37154725 48.18211079 32.377455 C41.6376624 32.38057273 35.09324406 32.38098939 28.54879761 32.37438202 C22.39611698 32.36860407 16.24351874 32.3726138 10.09084702 32.38417053 C7.83297741 32.38681469 5.57510088 32.38605619 3.31723404 32.3816452 C0.23491468 32.37617881 -2.8471408 32.38303738 -5.92944336 32.39300537 C-7.26909196 32.38631321 -7.26909196 32.38631321 -8.63580418 32.37948585 C-14.96462497 32.41917306 -20.36140894 32.74700327 -25.43359375 36.89697266 Z M-25.43359375 100.89697266 C-30.71651048 107.35387089 -31.08384339 112.47021691 -30.87109375 120.52197266 C-30.85755859 121.49650391 -30.84402344 122.47103516 -30.83007812 123.47509766 C-30.79491337 125.86630129 -30.74570045 128.25634241 -30.68359375 130.64697266 C-29.90652573 130.48459169 -29.1294577 130.32221073 -28.32884216 130.15490913 C-23.64965412 129.50290136 -19.07805544 129.50910127 -14.35961914 129.51998901 C-13.32150369 129.51842902 -12.28338823 129.51686903 -11.21381474 129.51526177 C-7.73627871 129.51127407 -4.25878635 129.51443281 -0.78125 129.51757812 C1.7123314 129.5162231 4.20591259 129.51444259 6.69949341 129.51226807 C12.76869485 129.50817964 18.83787916 129.50878076 24.90707994 129.51168071 C29.84014376 129.51394011 34.77320412 129.51424493 39.70626831 129.51315689 C40.40866479 129.51300366 41.11106127 129.51285042 41.83474249 129.51269255 C43.2616969 129.51237282 44.6886513 129.51204861 46.11560571 129.51171996 C59.49266545 129.50886917 72.86971833 129.5121459 86.24677694 129.51752032 C97.72213858 129.521988 109.1974901 129.52121195 120.67285156 129.51660156 C134.00241163 129.51124872 147.33196569 129.50914383 160.66152668 129.51221383 C162.08319918 129.51253237 163.50487169 129.51284674 164.92654419 129.51315689 C165.626014 129.51331117 166.32548381 129.51346544 167.04614967 129.51362439 C171.97265227 129.51448741 176.89915106 129.51303129 181.82565308 129.51067734 C188.45762564 129.50757812 195.08958206 129.50978819 201.7215538 129.51557159 C204.15722497 129.51689515 206.59289774 129.51651191 209.02856827 129.51430893 C212.34987788 129.51158162 215.67112596 129.51499804 218.99243164 129.51998901 C220.44252829 129.51664293 220.44252829 129.51664293 221.92191982 129.51322925 C226.50253305 129.52660517 230.80960322 129.70520309 235.31640625 130.64697266 C235.4040818 127.27213853 235.45702253 123.8976005 235.50390625 120.52197266 C235.52904297 119.57064453 235.55417969 118.61931641 235.58007812 117.63916016 C235.65301724 110.63700501 234.58940727 106.42508501 230.06640625 100.89697266 C224.27642187 96.15971271 217.7180864 96.35725868 210.56225586 96.39300537 C209.59749549 96.38988539 208.63273512 96.38676541 207.63873959 96.38355088 C204.41534704 96.37559205 201.19214385 96.38188635 197.96875 96.38818359 C195.65398041 96.3854728 193.33921168 96.38191137 191.02444458 96.37756348 C184.74357614 96.3684478 178.46277342 96.37198039 172.18190384 96.37832165 C165.60816521 96.38338585 159.03443221 96.37868902 152.46069336 96.37554932 C140.7143149 96.37127815 128.96796407 96.37789243 117.2215904 96.38806799 C106.57772515 96.39700311 95.93390353 96.39545095 85.29003906 96.38623047 C72.9207217 96.37552025 60.55143215 96.37154725 48.18211079 96.377455 C41.6376624 96.38057273 35.09324406 96.38098939 28.54879761 96.37438202 C22.39611698 96.36860407 16.24351874 96.3726138 10.09084702 96.38417053 C7.83297741 96.38681469 5.57510088 96.38605619 3.31723404 96.3816452 C0.23491468 96.37617881 -2.8471408 96.38303738 -5.92944336 96.39300537 C-7.26909196 96.38631321 -7.26909196 96.38631321 -8.63580418 96.37948585 C-14.96462497 96.41917306 -20.36140894 96.74700327 -25.43359375 100.89697266 Z M-25.43359375 164.89697266 C-30.46788978 171.05000114 -31.09649943 175.84662043 -30.87109375 183.52197266 C-30.85755859 184.40111328 -30.84402344 185.28025391 -30.83007812 186.18603516 C-30.79495998 188.33994817 -30.74116069 190.49354269 -30.68359375 192.64697266 C-29.61101318 192.65631836 -28.53843262 192.66566406 -27.43334961 192.67529297 C-23.37924589 192.71575577 -19.32585719 192.78165656 -15.2722168 192.85449219 C-13.53175172 192.88238066 -11.79116755 192.90375142 -10.05053711 192.91796875 C16.42719425 193.14694884 31.41828468 201.44763927 50 220.23291016 C53.76813682 224.15990603 57.39861696 228.20567872 60.76171875 232.48681641 C66.78396376 240.00639556 73.64497161 244.43210586 83.31640625 245.64697266 C88.36625109 245.89127363 93.39968474 245.93507848 98.45458984 245.90771484 C100.81113416 245.89699664 103.16691636 245.90765364 105.5234375 245.92041016 C120.85187236 245.9363127 129.3083959 243.65523328 140.26464844 232.82397461 C142.47059748 230.61771592 144.65590386 228.39200236 146.83642578 226.16064453 C168.52895232 203.97429275 185.57561093 193.58376697 217.00390625 193.02197266 C218.7845226 192.98371121 220.56512206 192.94465501 222.34570312 192.90478516 C226.66913065 192.80968573 230.99264435 192.72533746 235.31640625 192.64697266 C235.39773267 189.604762 235.45705999 186.56474886 235.50390625 183.52197266 C235.52904297 182.66603516 235.55417969 181.81009766 235.58007812 180.92822266 C235.65723394 174.24138564 234.37764601 170.16626569 230.06640625 164.89697266 C224.27642187 160.15971271 217.7180864 160.35725868 210.56225586 160.39300537 C209.59749549 160.38988539 208.63273512 160.38676541 207.63873959 160.38355088 C204.41534704 160.37559205 201.19214385 160.38188635 197.96875 160.38818359 C195.65398041 160.3854728 193.33921168 160.38191137 191.02444458 160.37756348 C184.74357614 160.3684478 178.46277342 160.37198039 172.18190384 160.37832165 C165.60816521 160.38338585 159.03443221 160.37868902 152.46069336 160.37554932 C140.7143149 160.37127815 128.96796407 160.37789243 117.2215904 160.38806799 C106.57772515 160.39700311 95.93390353 160.39545095 85.29003906 160.38623047 C72.9207217 160.37552025 60.55143215 160.37154725 48.18211079 160.377455 C41.6376624 160.38057273 35.09324406 160.38098939 28.54879761 160.37438202 C22.39611698 160.36860407 16.24351874 160.3726138 10.09084702 160.38417053 C7.83297741 160.38681469 5.57510088 160.38605619 3.31723404 160.3816452 C0.23491468 160.37617881 -2.8471408 160.38303738 -5.92944336 160.39300537 C-7.26909196 160.38631321 -7.26909196 160.38631321 -8.63580418 160.37948585 C-14.96462497 160.41917306 -20.36140894 160.74700327 -25.43359375 164.89697266 Z " fill="#000000" transform="translate(153.68359375,111.35302734375)"/>
<path d="M0 0 C5.56587182 0.00569669 11.13169583 0.00230117 16.69756603 -0.00343323 C37.05703327 -0.02130026 57.4115754 0.00362355 77.76464844 0.56005859 C78.46440292 0.57840633 79.16415741 0.59675407 79.88511658 0.61565781 C118.38811526 1.66252515 163.17088281 3.57386154 193.68261719 30.13037109 C194.50246094 30.81873047 195.32230469 31.50708984 196.16699219 32.21630859 C224.47402024 56.66328737 231.93655774 93.82512619 234.87011719 129.44287109 C235.5453625 139.22015114 235.94932489 149.00240067 236.22558594 158.79833984 C236.24699017 159.55127823 236.26839439 160.30421661 236.29044724 161.07997131 C236.86178196 181.86572373 236.83445188 202.65573508 236.81298828 223.44775391 C236.80729159 229.01362573 236.81068712 234.57944974 236.81642151 240.14531994 C236.83428854 260.50478717 236.80936473 280.8593293 236.25292969 301.21240234 C236.22540808 302.26203407 236.22540808 302.26203407 236.19733047 303.33287048 C235.15046314 341.83586916 233.23912674 386.61863672 206.68261719 417.13037109 C205.99425781 417.95021484 205.30589844 418.77005859 204.59667969 419.61474609 C180.14970091 447.92177415 142.98786209 455.38431165 107.37011719 458.31787109 C97.59283714 458.99311641 87.81058761 459.39707879 78.01464844 459.67333984 C77.26171005 459.69474407 76.50877167 459.7161483 75.73301697 459.73820114 C54.94726455 460.30953587 34.1572532 460.28220579 13.36523438 460.26074219 C7.79936255 460.2550455 2.23353854 460.25844102 -3.33233166 460.26417542 C-23.69179889 460.28204245 -44.04634102 460.25711864 -64.39941406 459.70068359 C-65.09916855 459.68233585 -65.79892303 459.66398811 -66.5198822 459.64508438 C-105.02288088 458.59821704 -149.80564844 456.68688064 -180.31738281 430.13037109 C-181.13722656 429.44201172 -181.95707031 428.75365234 -182.80175781 428.04443359 C-211.10878587 403.59745482 -218.57132336 366.43561599 -221.50488281 330.81787109 C-222.18012813 321.04059105 -222.58409051 311.25834152 -222.86035156 301.46240234 C-222.88175579 300.70946396 -222.90316002 299.95652557 -222.92521286 299.18077087 C-223.49654758 278.39501846 -223.46921751 257.60500711 -223.44775391 236.81298828 C-223.44205721 231.24711646 -223.44545274 225.68129245 -223.45118713 220.11542225 C-223.46905417 199.75595501 -223.44413036 179.40141289 -222.88769531 159.04833984 C-222.8601737 157.99870811 -222.8601737 157.99870811 -222.8320961 156.9278717 C-221.78522876 118.42487302 -219.87389236 73.64210547 -193.31738281 43.13037109 C-192.62902344 42.31052734 -191.94066406 41.49068359 -191.23144531 40.64599609 C-166.78446654 12.33896804 -129.62262771 4.87643054 -94.00488281 1.94287109 C-84.22760277 1.26762578 -74.44535324 0.86366339 -64.64941406 0.58740234 C-63.89647568 0.56599812 -63.14353729 0.54459389 -62.36778259 0.52254105 C-41.58203018 -0.04879368 -20.79201883 -0.0214636 0 0 Z M-76.52441406 34.03271484 C-77.81781456 34.09216152 -77.81781456 34.09216152 -79.13734436 34.15280914 C-107.53047893 35.50096432 -142.95450066 37.68169424 -164.31738281 59.13037109 C-185.41537827 83.49258471 -187.99978377 116.13117527 -189.41503906 146.92333984 C-189.47854931 148.2785096 -189.47854931 148.2785096 -189.54334259 149.66105652 C-190.64653206 173.90618643 -190.62155993 198.16192573 -190.578125 222.42724609 C-190.56673163 228.84334277 -190.57351714 235.25927346 -190.58500195 241.67536449 C-190.62131474 265.57867975 -190.53422561 289.45640908 -189.41503906 313.33740234 C-189.37540794 314.19966934 -189.33577682 315.06193634 -189.29494476 315.95033264 C-187.94678959 344.34346721 -185.76605967 379.76748894 -164.31738281 401.13037109 C-139.95516919 422.22836655 -107.31657864 424.81277205 -76.52441406 426.22802734 C-75.16924431 426.29153759 -75.16924431 426.29153759 -73.78669739 426.35633087 C-49.54156747 427.45952034 -25.28582817 427.43454821 -1.02050781 427.39111328 C5.39558886 427.37971991 11.81151955 427.38650542 18.22761059 427.39799023 C42.13092584 427.43430303 66.00865517 427.3472139 89.88964844 426.22802734 C91.18304893 426.16858067 91.18304893 426.16858067 92.50257874 426.10793304 C120.89571331 424.75977787 156.31973504 422.57904795 177.68261719 401.13037109 C198.78061264 376.76815748 201.36501815 344.12956692 202.78027344 313.33740234 C202.8226136 312.43395584 202.86495377 311.53050934 202.90857697 310.59968567 C204.01176643 286.35455575 203.98679431 262.09881645 203.94335938 237.83349609 C203.931966 231.41739942 203.93875152 225.00146873 203.95023632 218.58537769 C203.98654912 194.68206244 203.89945999 170.80433311 202.78027344 146.92333984 C202.72082676 145.62993935 202.72082676 145.62993935 202.66017914 144.31040955 C201.31202397 115.91727497 199.13129405 80.49325324 177.68261719 59.13037109 C153.32040357 38.03237564 120.68181301 35.44797013 89.88964844 34.03271484 C88.98620193 33.99037468 88.08275543 33.94803452 87.15193176 33.90441132 C62.90680185 32.80122185 38.65106255 32.82619398 14.38574219 32.86962891 C7.96964551 32.88102228 1.55371482 32.87423677 -4.86237621 32.86275196 C-28.76569147 32.82643916 -52.6434208 32.91352829 -76.52441406 34.03271484 Z " fill="#000000" transform="translate(249.3173828125,25.86962890625)"/>
</svg>
