<?xml version="1.0" encoding="UTF-8"?>
<svg version="1.1" xmlns="http://www.w3.org/2000/svg" width="512" height="512">
<path d="M0 0 C15.01936835 13.16484268 25.03981459 27.81982036 27.4375 47.93359375 C28.25245438 47.92915253 29.06740875 47.9247113 29.90705872 47.9201355 C37.62960098 47.87987384 45.35209154 47.84951605 53.0747118 47.82996941 C57.04391308 47.81958211 61.01302682 47.80551661 64.98217773 47.78271484 C68.82067906 47.76080445 72.65909678 47.74898723 76.49765587 47.74383926 C77.95389813 47.74017587 79.4101364 47.73302334 80.86634254 47.72213364 C97.39740041 47.60355536 110.88011687 49.3809351 123.375 61.12109375 C135.11761436 73.62511683 135.75524222 88.2923624 135.6328125 104.6640625 C135.62907316 106.15049548 135.62623055 107.63693096 135.62423706 109.12336731 C135.61667302 112.99816939 135.59708851 116.87281679 135.5748291 120.74755859 C135.55421307 124.71645008 135.54520197 128.68536705 135.53515625 132.65429688 C135.51383426 140.41413231 135.479788 148.1738412 135.4375 155.93359375 C136.67052856 156.12942299 136.67052856 156.12942299 137.9284668 156.32920837 C139.54748901 156.59152 139.54748901 156.59152 141.19921875 156.85913086 C142.26873779 157.03093369 143.33825684 157.20273651 144.44018555 157.37974548 C160.7686825 160.39694967 175.71962717 172.54762816 185.4375 185.625 C195.12484764 200.30216679 201.02812465 217.16712516 199.4375 234.93359375 C198.7775 235.59359375 198.1175 236.25359375 197.4375 236.93359375 C196.45394531 236.42570313 195.47039062 235.9178125 194.45703125 235.39453125 C182.67843098 229.49228443 169.72047894 224.10211408 156.515625 222.6015625 C154.4375 221.93359375 154.4375 221.93359375 152.8125 219.60546875 C152.35875 218.64125 151.905 217.67703125 151.4375 216.68359375 C147.56114547 209.03965994 142.56488072 204.00636468 134.5 200.74609375 C120.71000602 197.08752392 105.00368954 198.3446904 91.4375 197.93359375 C91.4375 162.95359375 91.4375 127.97359375 91.4375 91.93359375 C56.4575 91.93359375 21.4775 91.93359375 -14.5625 91.93359375 C-14.8925 81.04359375 -15.2225 70.15359375 -15.5625 58.93359375 C-17.41644385 49.66387452 -19.39775125 40.4843954 -27.3828125 34.58984375 C-35.81752514 29.07360582 -43.56224565 28.02345824 -53.5625 28.93359375 C-56.88738719 29.83550597 -59.62788498 31.14705167 -62.5625 32.93359375 C-63.19800781 33.29582031 -63.83351562 33.65804687 -64.48828125 34.03125 C-71.01669273 38.15519301 -74.6722518 44.53012163 -76.5625 51.93359375 C-78.45047363 65.14940919 -78.15814047 78.58972941 -78.5625 91.93359375 C-113.5425 91.93359375 -148.5225 91.93359375 -184.5625 91.93359375 C-184.5625 106.78359375 -184.5625 121.63359375 -184.5625 136.93359375 C-182.9125 137.26359375 -181.2625 137.59359375 -179.5625 137.93359375 C-155.73444103 148.52024495 -137.73358379 168.11651724 -127.5625 191.93359375 C-117.34043528 218.50298124 -118.30520587 246.71359502 -129.53710938 272.74414062 C-139.89958556 294.87049453 -159.20149017 313.22975929 -181.5625 322.93359375 C-182.5525 322.93359375 -183.5425 322.93359375 -184.5625 322.93359375 C-184.5625 337.78359375 -184.5625 352.63359375 -184.5625 367.93359375 C-169.7125 367.93359375 -154.8625 367.93359375 -139.5625 367.93359375 C-139.2325 366.28359375 -138.9025 364.63359375 -138.5625 362.93359375 C-128.16781001 339.16963267 -108.09851236 321.18398294 -84.5625 310.93359375 C-59.44981433 301.26498634 -31.36831151 301.29253666 -6.5625 311.93359375 C6.75957908 318.25567283 6.75957908 318.25567283 9.4375 320.93359375 C9.56140116 324.15502391 9.60161049 327.14848981 8.94018555 330.31274414 C6.40470203 343.53198432 7.50900809 359.8170326 10.4375 372.93359375 C10.5828418 373.59665527 10.72818359 374.2597168 10.87792969 374.94287109 C13.57453863 386.84078339 18.12036329 397.4220151 23.69067383 408.24804688 C24.4375 409.93359375 24.4375 409.93359375 24.4375 411.93359375 C19.8175 411.93359375 15.1975 411.93359375 10.4375 411.93359375 C10.35113281 410.56847656 10.26476562 409.20335937 10.17578125 407.796875 C9.0725908 392.59952339 6.7904358 381.44088459 -2.890625 369.17578125 C-4.5625 366.93359375 -4.5625 366.93359375 -5.5625 363.93359375 C-6.86910788 363.2159601 -8.20836565 362.55692543 -9.5625 361.93359375 C-11.05256181 360.84417471 -12.53079556 359.73848195 -14 358.62109375 C-27.0050129 349.39235126 -42.30299728 347.21551617 -57.8515625 349.39453125 C-68.55285603 351.7945575 -77.508077 356.57955536 -85.5625 363.93359375 C-86.2225 363.93359375 -86.8825 363.93359375 -87.5625 363.93359375 C-87.82417969 364.50207031 -88.08585938 365.07054687 -88.35546875 365.65625 C-89.65602479 368.1100499 -91.19448052 370.16145283 -92.875 372.37109375 C-99.46114648 381.83867931 -101.77358068 390.57531854 -102.69921875 401.8828125 C-102.78473999 402.85198608 -102.87026123 403.82115967 -102.95837402 404.81970215 C-103.16659465 407.19049494 -103.36779388 409.56165937 -103.5625 411.93359375 C-114.32474333 411.98009249 -125.08696246 412.01555167 -135.84928608 412.03721809 C-140.8475584 412.04762092 -145.84576159 412.06171568 -150.84399414 412.08447266 C-155.67452352 412.10632651 -160.50498672 412.11818866 -165.33556175 412.12334824 C-167.17138904 412.12702159 -169.00721302 412.13419427 -170.84301186 412.14505386 C-188.34963299 412.24442232 -203.04873855 411.3848629 -216.5 398.74609375 C-229.20783547 385.21426319 -228.86115443 368.95417872 -228.7578125 351.484375 C-228.75407561 349.61679741 -228.75123184 347.74921784 -228.74923706 345.88163757 C-228.74165377 341.00072682 -228.7220517 336.11993783 -228.6998291 331.23907471 C-228.67925553 326.24468635 -228.67021088 321.25027803 -228.66015625 316.25585938 C-228.6388001 306.48171776 -228.6047293 296.70766594 -228.5625 286.93359375 C-227.96365997 286.88413605 -227.36481995 286.83467834 -226.74783325 286.78372192 C-224.00044328 286.55237708 -221.25418873 286.30947869 -218.5078125 286.06640625 C-217.56591064 285.9888208 -216.62400879 285.91123535 -215.65356445 285.83129883 C-203.84193006 284.76593573 -195.18143012 281.00669586 -185.8046875 273.60546875 C-183.5625 271.93359375 -183.5625 271.93359375 -180.5625 270.93359375 C-179.84486635 269.62698587 -179.18583168 268.2877281 -178.5625 266.93359375 C-177.47308096 265.44353194 -176.3673882 263.96529819 -175.25 262.49609375 C-166.02125751 249.49108085 -163.84442242 234.19309647 -166.0234375 218.64453125 C-168.42346375 207.94323772 -173.20846161 198.98801675 -180.5625 190.93359375 C-180.5625 190.27359375 -180.5625 189.61359375 -180.5625 188.93359375 C-181.13097656 188.67191406 -181.69945312 188.41023437 -182.28515625 188.140625 C-184.73895615 186.84006896 -186.79035908 185.30161323 -189 183.62109375 C-198.46758556 177.03494727 -207.20422479 174.72251307 -218.51171875 173.796875 C-219.48089233 173.71135376 -220.45006592 173.62583252 -221.4486084 173.53771973 C-223.81940119 173.3294991 -226.19056562 173.12829987 -228.5625 172.93359375 C-228.60896994 162.02369561 -228.64444345 151.11382126 -228.66612434 140.20384407 C-228.67653338 135.1371624 -228.6906397 130.07054877 -228.71337891 125.00390625 C-228.73521033 120.10854301 -228.74709026 115.21324495 -228.75225449 110.31783676 C-228.75593182 108.45606333 -228.76311246 106.59429322 -228.77396011 104.73254776 C-228.87058267 87.45240636 -227.86599181 73.27223362 -215.375 59.99609375 C-203.04605378 48.40220665 -188.85950047 47.61980421 -172.7109375 47.73828125 C-171.200655 47.74201933 -169.69037004 47.74486254 -168.18008423 47.74685669 C-164.23786522 47.75443068 -160.29579759 47.77402425 -156.3536377 47.79626465 C-152.31781053 47.81685872 -148.2819585 47.82588718 -144.24609375 47.8359375 C-136.35149364 47.85727715 -128.45701574 47.89133609 -120.5625 47.93359375 C-120.43194717 47.11157471 -120.30139435 46.28955566 -120.16688538 45.44262695 C-119.99201096 44.36327881 -119.81713654 43.28393066 -119.63696289 42.171875 C-119.46516006 41.10235596 -119.29335724 40.03283691 -119.11634827 38.9309082 C-116.09914408 22.60241125 -103.94846559 7.65146658 -90.87109375 -2.06640625 C-62.98323032 -20.47318951 -26.74164545 -21.56452811 0 0 Z " fill="#000000" transform="translate(270.5625,58.06640625)"/>
<path d="M0 0 C14.19 0 28.38 0 43 0 C43 21.12 43 42.24 43 64 C64.12 64 85.24 64 107 64 C107 78.19 107 92.38 107 107 C85.88 107 64.76 107 43 107 C43 128.12 43 149.24 43 171 C28.81 171 14.62 171 0 171 C0 149.88 0 128.76 0 107 C-21.12 107 -42.24 107 -64 107 C-64 92.81 -64 78.62 -64 64 C-42.88 64 -21.76 64 0 64 C0 42.88 0 21.76 0 0 Z " fill="#000000" transform="translate(384,320)"/>
</svg>
