<?xml version="1.0" encoding="UTF-8"?>
<svg version="1.1" xmlns="http://www.w3.org/2000/svg" width="1024" height="1024">
<path d="M0 0 C337.92 0 675.84 0 1024 0 C1024 337.92 1024 675.84 1024 1024 C686.08 1024 348.16 1024 0 1024 C0 686.08 0 348.16 0 0 Z " fill="#FBFBFB" transform="translate(0,0)"/>
<path d="M0 0 C5.7975366 4.35536331 11.38040707 9.00880917 16.984375 13.609375 C20.63820817 16.60324959 24.33742118 19.5330291 28.0625 22.4375 C35.22390621 28.02952227 42.26232441 33.76881959 49.30566406 39.50830078 C54.78215735 43.96346917 60.30938333 48.35103501 65.87451172 52.69482422 C72.58294435 57.93619654 79.17476878 63.30353191 85.73120117 68.73364258 C90.81878384 72.93798441 95.97131427 77.04715404 101.17578125 81.10546875 C105.58362694 84.54623513 109.91111402 88.07668046 114.2265625 91.6328125 C117.43047807 94.23654554 120.68068569 96.77556148 123.9375 99.3125 C128.59133597 102.94103278 133.14436296 106.65984167 137.625 110.5 C142.41262473 114.601602 147.31751038 118.49954998 152.33496094 122.31542969 C157.6878358 126.39212247 162.87109495 130.65864662 168.0625 134.9375 C170.66305298 137.06694848 173.26807876 139.19085384 175.875 141.3125 C176.89811279 142.14527466 176.89811279 142.14527466 177.94189453 142.99487305 C181.77042272 146.10266791 185.62237088 149.1759666 189.51171875 152.20727539 C191.8051763 153.99533478 194.08946851 155.7947604 196.37011719 157.59912109 C197.50668473 158.4979473 198.6453933 159.39407223 199.78613281 160.28759766 C215.32635758 172.53555132 227.38182366 188.85796478 230.0625 208.9375 C230.21392834 212.63467447 230.21032345 216.32949333 230.20967102 220.02938843 C230.21334771 221.15028638 230.2170244 222.27118432 230.2208125 223.42604887 C230.23183063 227.1842651 230.23569006 230.94245365 230.23950195 234.70068359 C230.24576811 237.39478722 230.2524026 240.08888792 230.25941467 242.7829895 C230.27914337 250.86962089 230.28924152 258.95625346 230.29814246 267.04290289 C230.30253197 270.85726307 230.30789712 274.67162188 230.31313133 278.48598099 C230.33014135 291.17701364 230.34463297 303.86804545 230.35188007 316.55908775 C230.35378977 319.84977596 230.35571013 323.14046416 230.35766602 326.43115234 C230.35814976 327.24897204 230.3586335 328.06679175 230.3591319 328.90939386 C230.36742272 342.14169296 230.39274459 355.37390138 230.42524669 368.60616092 C230.45839152 382.21177924 230.47633559 395.81735159 230.47952431 409.42301047 C230.48168274 417.05377619 230.4903329 424.68440976 230.51598549 432.31513596 C230.53779435 438.81727443 230.54569333 445.31924862 230.53601871 451.82141952 C230.53150289 455.13293335 230.53542393 458.44383679 230.55278015 461.75534821 C230.66575907 484.60125949 228.99825163 503.23365353 212.50390625 520.62109375 C198.36240821 534.03854709 182.26995331 538.74211076 163.2109375 538.30859375 C144.89074314 537.3527871 130.89738719 526.92832573 117.55859375 515.23193359 C113.83167951 512.00737431 109.92720498 508.99390067 106.0625 505.9375 C99.57836213 500.77496985 93.13262542 495.56875601 86.72900391 490.30664062 C85.52859681 489.32042864 84.32768937 488.33482555 83.12646484 487.34960938 C75.83244674 481.36670257 68.54930188 475.3762454 61.375 469.25 C56.45361372 465.0511314 51.40828898 461.03807998 46.30102539 457.06835938 C41.65940638 453.44550629 37.15714021 449.67938912 32.68017578 445.85595703 C28.68964394 442.45208837 24.62842315 439.15376538 20.51953125 435.89453125 C15.9946586 432.29045939 11.53424634 428.60711105 7.0625 424.9375 C3.3985475 421.93416924 -0.2687493 418.93496722 -3.9375 415.9375 C-4.54255371 415.4420166 -5.14760742 414.9465332 -5.77099609 414.43603516 C-13.46391258 408.13869385 -21.17191122 401.88352532 -29.12841797 395.92016602 C-30.41501636 394.94791869 -31.67908288 393.94595755 -32.9375 392.9375 C-32.9375 392.6075 -32.9375 392.2775 -32.9375 391.9375 C-32.25427422 391.93603344 -31.57104843 391.93456688 -30.86711884 391.93305588 C-14.22384579 391.89596455 2.41919098 391.83691916 19.06229401 391.75359726 C27.11086857 391.71382944 35.15934567 391.68142553 43.20800781 391.66650391 C50.2252424 391.65347563 57.24226235 391.62648115 64.25937605 391.58288693 C67.97311589 391.5602983 71.68659126 391.54458774 75.40040588 391.54561615 C79.55174487 391.54650354 83.70230607 391.51620352 87.85351562 391.48339844 C89.07775238 391.4884288 90.30198914 391.49345917 91.56332397 391.49864197 C98.51948405 391.41363516 103.17620045 390.74762245 109.0625 386.9375 C113.03934213 382.04292507 114.18148479 378.20583983 114.20294189 372.03057861 C114.20865204 371.04377106 114.21436218 370.0569635 114.22024536 369.04025269 C114.22136322 367.963815 114.22248108 366.88737732 114.22363281 365.77832031 C114.22859772 364.63966522 114.23356262 363.50101013 114.23867798 362.32785034 C114.25329488 358.55710243 114.26010103 354.7863966 114.265625 351.015625 C114.27137705 348.39491779 114.27713478 345.7742106 114.28289795 343.15350342 C114.29246502 338.3583719 114.29836436 333.56324945 114.3013947 328.76810956 C114.30587154 321.72388202 114.32340475 314.67984889 114.3523953 307.63568044 C114.3766729 301.52318917 114.38434177 295.41077777 114.38607025 289.29824066 C114.38909464 286.70354911 114.39711593 284.10885834 114.41025543 281.5141983 C114.42734127 277.88073573 114.42542906 274.24774445 114.41894531 270.61425781 C114.4281601 269.54591705 114.43737488 268.47757629 114.4468689 267.37686157 C114.40491784 259.85851885 113.68394505 253.91089832 108.53125 248.06640625 C107.5515625 247.21949219 106.571875 246.37257813 105.5625 245.5 C105.03132568 245.03464844 104.50015137 244.56929687 103.95288086 244.08984375 C102.33835125 242.68603003 100.70561658 241.30768701 99.0625 239.9375 C98.14597656 239.17308594 97.22945312 238.40867187 96.28515625 237.62109375 C94.50017063 236.15588529 92.70838119 234.69892945 90.91015625 233.25 C87.75628627 230.68883261 84.65655641 228.07026569 81.5625 225.4375 C77.61619832 222.08279659 73.64607179 218.76527563 69.625 215.5 C64.76120975 211.54241812 60.00368769 207.47207554 55.25415039 203.37915039 C51.72951081 200.34804711 48.17210118 197.36764684 44.5625 194.4375 C40.3345752 191.00541987 36.1872211 187.49198829 32.0625 183.9375 C27.04935227 179.61815728 21.97712485 175.38652723 16.83984375 171.21484375 C13.71853633 168.65545946 10.6379997 166.05156209 7.5625 163.4375 C2.71574469 159.31878891 -2.18280894 155.27149069 -7.1171875 151.2578125 C-10.29521362 148.64320375 -13.42949765 145.98068137 -16.5625 143.3125 C-27.21791096 133.39157317 -27.21791096 133.39157317 -40.6875 129.625 C-41.69296875 129.58761719 -42.6984375 129.55023438 -43.734375 129.51171875 C-50.99630703 130.47702435 -56.39757203 135.73645974 -61.8125 140.3125 C-63.31238156 141.56394405 -64.81238515 142.81524186 -66.3125 144.06640625 C-67.075625 144.70594238 -67.83875 145.34547852 -68.625 146.00439453 C-72.33686831 149.10728445 -76.07524867 152.1777744 -79.8125 155.25 C-81.22919908 156.41662731 -82.64586671 157.5832928 -84.0625 158.75 C-89.84805118 163.51126099 -95.65000062 168.25236852 -101.453125 172.9921875 C-107.12494222 177.62813391 -112.78402052 182.27921622 -118.4375 186.9375 C-126.17451023 193.31173659 -133.91306748 199.68368403 -141.70703125 205.98828125 C-157.99727881 219.17086889 -172.79937811 231.65848132 -185.24414062 248.64550781 C-186.98075528 250.99604679 -188.74374079 253.32438915 -190.515625 255.6484375 C-199.75978295 267.79243674 -208.48608967 280.23001871 -216.9375 292.9375 C-217.44265137 293.69659668 -217.94780273 294.45569336 -218.46826172 295.23779297 C-236.55867626 322.54280069 -252.30262578 351.24831259 -267.14550781 380.42089844 C-268.82430529 383.71536694 -270.51668623 387.00252401 -272.2109375 390.2890625 C-287.51862244 420.20338887 -300.97963747 451.16520511 -311.9375 482.9375 C-312.2675 482.9375 -312.5975 482.9375 -312.9375 482.9375 C-313.00624825 448.65201922 -313.05907042 414.36655425 -313.09069599 380.08101936 C-313.09444786 376.02829665 -313.09833085 371.97557407 -313.10229492 367.92285156 C-313.10347532 366.71267518 -313.10347532 366.71267518 -313.10467956 365.47805078 C-313.11771412 352.43480388 -313.14135717 339.39159686 -313.16895839 326.34837358 C-313.19706695 312.95314147 -313.21368776 299.55793017 -313.21976548 286.16266978 C-313.22387065 277.90488604 -313.2368108 269.64721507 -313.2612494 261.38946606 C-313.27717397 255.71780028 -313.28188524 250.04619234 -313.27800413 244.37450586 C-313.27609297 241.1079542 -313.2805782 237.84163869 -313.29511642 234.5751133 C-313.42855573 203.03467821 -313.42855573 203.03467821 -306.25 189.75 C-305.90042236 189.08274902 -305.55084473 188.41549805 -305.19067383 187.72802734 C-297.99016174 174.31483402 -288.21220047 164.78599152 -276.1640625 155.6328125 C-273.82819505 153.85427482 -271.53742354 152.02787008 -269.25 150.1875 C-265.88954868 147.4887991 -262.50917137 144.81831749 -259.11083984 142.16748047 C-253.20378034 137.55648465 -247.38914669 132.85099291 -241.625 128.0625 C-235.19449948 122.72421956 -228.63248872 117.59796577 -221.96826172 112.55566406 C-216.80841709 108.63931441 -211.8275635 104.56782916 -206.87890625 100.38671875 C-203.6952184 97.73575955 -200.45406482 95.17240068 -197.1875 92.625 C-192.05461245 88.62159 -186.98004159 84.55412035 -181.9375 80.4375 C-176.41499416 75.93045253 -170.84781004 71.4896537 -165.22875977 67.10375977 C-160.73086154 63.58374854 -156.29764298 59.98893112 -151.875 56.375 C-146.08390158 51.64486618 -140.21237256 47.05282773 -134.265625 42.51953125 C-129.81973915 39.0997217 -125.50228702 35.522142 -121.16455078 31.96704102 C-115.5971854 27.42538271 -109.89872498 23.07575239 -104.15991211 18.75390625 C-100.13017434 15.69421337 -96.26151419 12.52753307 -92.48168945 9.16455078 C-67.15974708 -13.34780909 -29.36168876 -19.87104189 0 0 Z " fill="#2F7CB0" transform="translate(553.9375,239.0625)"/>
<path d="M0 0 C1.00546875 -0.03738281 2.0109375 -0.07476562 3.046875 -0.11328125 C10.25609476 0.84501747 15.34619552 5.87394679 20.5625 10.5625 C21.88805046 11.73321316 23.21487314 12.90248744 24.54296875 14.0703125 C25.49888916 14.91190918 25.49888916 14.91190918 26.47412109 15.77050781 C29.48230042 18.38250405 32.61060815 20.83483072 35.73828125 23.30078125 C41.00583832 27.5197422 46.11165224 31.9378196 51.25 36.3125 C53.45694271 38.18914318 55.66524496 40.06416916 57.875 41.9375 C58.41688965 42.39688965 58.9587793 42.8562793 59.51708984 43.32958984 C62.87874011 46.17234806 66.27067616 48.97351797 69.6875 51.75 C74.55049424 55.70693418 79.30700203 59.77685942 84.05615234 63.86865234 C88.47031766 67.66413367 92.95333198 71.36527913 97.47265625 75.03515625 C101.15759143 78.05669944 104.78568321 81.14285951 108.41650391 84.22900391 C111.80973475 87.10807843 115.2327672 89.94461492 118.6875 92.75 C123.54511284 96.70255543 128.30006731 100.76402552 133.03857422 104.85766602 C136.73892531 108.04609267 140.49735921 111.13744128 144.3125 114.1875 C150.10902081 118.9184839 154.3574029 122.84440368 156.25 130.3125 C156.54276883 134.10829772 156.53347571 137.89311468 156.5246582 141.69873047 C156.5323246 143.40715118 156.5323246 143.40715118 156.54014587 145.15008545 C156.55403039 148.91000646 156.55308586 152.66974392 156.55078125 156.4296875 C156.5546689 159.04753691 156.55900371 161.66538568 156.56376648 164.28323364 C156.57197021 169.76907982 156.57107779 175.25487448 156.56567383 180.74072266 C156.55963689 187.06757419 156.57194141 193.39420319 156.5932439 199.72101676 C156.61303139 205.82391476 156.61602798 211.92670922 156.61250877 218.02963638 C156.61302159 220.61874031 156.61825193 223.20784782 156.62832069 225.79693222 C156.64068316 229.4206217 156.6338938 233.04379893 156.62231445 236.66748047 C156.62995819 237.73267914 156.63760193 238.79787781 156.64547729 239.89535522 C156.60042756 246.2870491 156.37307492 252.78395163 151.90428638 257.83292961 C147.00777901 262.17002694 142.58303938 263.56754385 136.15310669 263.53282166 C134.927883 263.5312355 133.7026593 263.52964935 132.44030762 263.52801514 C131.09057474 263.51615357 129.74084332 263.50412403 128.39111328 263.49194336 C126.96333123 263.48646512 125.53554536 263.48191633 124.10775757 263.47822571 C121.03735002 263.46852675 117.96705638 263.45271043 114.89670181 263.43226433 C110.03848153 263.40040314 105.180294 263.3849445 100.32199097 263.37220764 C88.25434692 263.33814805 76.18679237 263.28551348 64.1192627 263.2230835 C54.74087693 263.17459273 45.36257246 263.13251876 35.98407924 263.11157519 C31.15797393 263.10007277 26.33220476 263.07469695 21.50622201 263.03882778 C18.49910992 263.01958693 15.49206551 263.01294942 12.48489761 263.00976372 C11.09455867 263.00575691 9.70422316 262.99659959 8.31395721 262.98180008 C-1.2448014 262.88374616 -7.68367192 263.38153071 -15.1875 269.6875 C-16.45400391 270.73550781 -16.45400391 270.73550781 -17.74609375 271.8046875 C-18.73738281 272.63226562 -19.72867188 273.45984375 -20.75 274.3125 C-23.41111463 276.48601255 -26.08116502 278.64847899 -28.75 280.8125 C-30.14589396 281.94784213 -31.54172854 283.08325728 -32.9375 284.21875 C-35.86436768 286.59682999 -38.80129805 288.96150791 -41.75 291.3125 C-51.78586016 299.3210829 -61.72176854 307.45329491 -71.625 315.625 C-76.75891167 319.86105011 -81.91154419 324.06797931 -87.12109375 328.2109375 C-90.55422219 330.95539976 -93.96488737 333.7270218 -97.375 336.5 C-98.05393311 337.05204102 -98.73286621 337.60408203 -99.43237305 338.17285156 C-101.53848384 339.88577889 -103.64429583 341.59907283 -105.75 343.3125 C-113.61855165 349.71519911 -121.48748899 356.11543483 -129.41796875 362.44140625 C-131.9162422 364.44588361 -134.39731427 366.47013302 -136.875 368.5 C-137.7928125 369.25152344 -138.710625 370.00304687 -139.65625 370.77734375 C-141.27934646 372.10738113 -142.90226354 373.4376395 -144.5234375 374.77001953 C-149.24283358 378.64614178 -153.98816232 382.48866599 -158.75 386.3125 C-159.46027344 386.88645508 -160.17054688 387.46041016 -160.90234375 388.05175781 C-178.5778036 402.26723841 -195.2862352 411.06058741 -218.75 409.3125 C-234.43284802 407.40582297 -248.6082493 400.52407269 -258.75 388.3125 C-266.75568033 377.31026232 -272.08243859 365.05981706 -270.75 351.3125 C-269.66651226 346.93159099 -268.10672377 342.81337481 -266.4375 338.625 C-265.98673096 337.45509521 -265.53596191 336.28519043 -265.0715332 335.07983398 C-260.35159156 322.98483087 -255.14064117 311.12074394 -249.75 299.3125 C-249.03384521 297.72791992 -249.03384521 297.72791992 -248.30322266 296.11132812 C-235.45242014 267.70563787 -221.81147224 239.53008621 -206.07568359 212.60107422 C-204.49987155 209.88069445 -202.98374207 207.13059047 -201.47070312 204.375 C-197.08870644 196.4227943 -192.37162161 188.67565439 -187.625 180.9375 C-186.95557373 179.84332764 -186.28614746 178.74915527 -185.59643555 177.62182617 C-181.52393128 171.02152599 -177.24691054 164.62909061 -172.75 158.3125 C-171.68622899 156.77651844 -170.62500895 155.23876688 -169.56640625 153.69921875 C-161.5383622 142.08310547 -153.15255568 130.79158922 -144.52001953 119.61865234 C-142.96177244 117.58841758 -141.42557105 115.54483133 -139.90234375 113.48828125 C-131.75778667 102.53558152 -122.52792136 93.65076784 -111.75 85.3125 C-106.46114282 81.05137292 -101.22652146 76.72970852 -96.05981445 72.3215332 C-90.47233767 67.55473021 -84.78884104 62.95157981 -78.98999023 58.44458008 C-74.34344613 54.81767811 -69.83666362 51.0471067 -65.35449219 47.2199707 C-61.49915287 43.93190362 -57.57556333 40.74914156 -53.60546875 37.6015625 C-49.81230073 34.56080127 -46.06270284 31.46849848 -42.3125 28.375 C-41.5712085 27.76382324 -40.82991699 27.15264648 -40.06616211 26.52294922 C-36.94435393 23.94855403 -33.82341288 21.37311269 -30.703125 18.796875 C-25.58834026 14.59004021 -20.43458237 10.43289612 -15.25 6.3125 C-14.64969971 5.83079346 -14.04939941 5.34908691 -13.4309082 4.8527832 C-8.84675293 1.23082336 -5.7908952 0.13962818 0 0 Z " fill="#FAFAFB" transform="translate(512.75,367.6875)"/>
<path d="M0 0 C4.2538111 0.48270197 6.62980466 3.15533786 9.5625 6 C14.22730307 10.40220775 19.02129534 14.53013391 24.01953125 18.5546875 C27.57290019 21.47003344 31.03734593 24.47799995 34.5 27.5 C38.88203766 31.32326173 43.29060094 35.09154701 47.8125 38.75 C52.16938253 42.27669369 56.32675904 45.97502089 60.46875 49.75 C63.0884481 52.07862053 65.7751531 54.29562947 68.5 56.5 C72.0947765 59.4081338 75.58260628 62.38541332 79 65.5 C83.3227825 69.43914412 87.80236174 73.13809639 92.34765625 76.81640625 C95.54452181 79.44828821 98.61439011 82.20279324 101.69140625 84.97265625 C104.22241591 87.19531955 106.81912966 89.31856636 109.4375 91.4375 C113.91853252 95.07093805 118.20595249 98.86491872 122.46875 102.75 C125.98855463 105.87871522 129.65260097 108.81596916 133.31640625 111.7734375 C135.7776472 113.81551515 138.10633556 115.9372288 140.4375 118.125 C152.47989598 129.03961604 165.81068374 138.33468738 179.984375 146.2421875 C180.97953125 146.82226562 181.9746875 147.40234375 183 148 C183 148.33 183 148.66 183 149 C182.43925278 148.99333817 181.87850555 148.98667633 181.30076599 148.97981262 C175.44430293 148.91324465 169.58794805 148.86811062 163.73120117 148.83520508 C161.5478885 148.82015445 159.36460589 148.79970926 157.18139648 148.77368164 C154.03621994 148.73713482 150.89144451 148.72023602 147.74609375 148.70703125 C146.7760289 148.69154739 145.80596405 148.67606354 144.8065033 148.66011047 C136.98323144 148.65818452 131.66202175 150.24916338 125.5625 155.375 C124.29599609 156.42300781 124.29599609 156.42300781 123.00390625 157.4921875 C122.01261719 158.31976562 121.02132812 159.14734375 120 160 C117.33888537 162.17351255 114.66883498 164.33597899 112 166.5 C110.60410604 167.63534213 109.20827146 168.77075728 107.8125 169.90625 C104.88563232 172.28432999 101.94870195 174.64900791 99 177 C88.96413984 185.0085829 79.02823146 193.14079491 69.125 201.3125 C63.99108833 205.54855011 58.83845581 209.75547931 53.62890625 213.8984375 C50.19577781 216.64289976 46.78511263 219.4145218 43.375 222.1875 C42.69606689 222.73954102 42.01713379 223.29158203 41.31762695 223.86035156 C39.21151616 225.57327889 37.10570417 227.28657283 35 229 C27.13144835 235.40269911 19.26251101 241.80293483 11.33203125 248.12890625 C8.8337578 250.13338361 6.35268573 252.15763302 3.875 254.1875 C2.9571875 254.93902344 2.039375 255.69054687 1.09375 256.46484375 C-0.52934646 257.79488113 -2.15226354 259.1251395 -3.7734375 260.45751953 C-8.49283358 264.33364178 -13.23816232 268.17616599 -18 272 C-18.71027344 272.57395508 -19.42054688 273.14791016 -20.15234375 273.73925781 C-37.8278036 287.95473841 -54.5362352 296.74808741 -78 295 C-93.68284802 293.09332297 -107.8582493 286.21157269 -118 274 C-126.00568033 262.99776232 -131.33243859 250.74731706 -130 237 C-128.91651226 232.61909099 -127.35672377 228.50087481 -125.6875 224.3125 C-125.23673096 223.14259521 -124.78596191 221.97269043 -124.3215332 220.76733398 C-119.60159156 208.67233087 -114.39064117 196.80824394 -109 185 C-108.52256348 183.94361328 -108.04512695 182.88722656 -107.55322266 181.79882812 C-94.70242014 153.39313787 -81.06147224 125.21758621 -65.32568359 98.28857422 C-63.74987155 95.56819445 -62.23374207 92.81809047 -60.72070312 90.0625 C-56.33870644 82.1102943 -51.62162161 74.36315439 -46.875 66.625 C-46.20557373 65.53082764 -45.53614746 64.43665527 -44.84643555 63.30932617 C-40.77393128 56.70902599 -36.49691054 50.31659061 -32 44 C-30.93622899 42.46401844 -29.87500895 40.92626688 -28.81640625 39.38671875 C-20.7001067 27.64485778 -12.21452075 16.23486621 -3.47363281 4.95092773 C-2.25854025 3.34227885 -1.11826805 1.67740207 0 0 Z " fill="#FAB12D" transform="translate(372,482)"/>
<path d="M0 0 C0.33 0 0.66 0 1 0 C1.01030746 1.1164238 1.02061493 2.2328476 1.03123474 3.38310242 C1.12898525 13.90364254 1.23172096 24.42412374 1.33933926 34.94456768 C1.39450672 40.35324272 1.44791685 45.76192323 1.49731445 51.1706543 C1.54504909 56.390228 1.59739519 61.60973695 1.65294075 66.82923317 C1.67332308 68.82071126 1.6920429 70.81220709 1.70907402 72.80371666 C1.73320934 75.59276104 1.76325136 78.38168387 1.79467773 81.1706543 C1.8004332 81.99424438 1.80618866 82.81783447 1.81211853 83.66638184 C1.85255776 86.82320038 1.93859178 89.70094578 2.57533264 92.80183411 C3.05271277 95.27285216 2.68366254 96.60783126 2 99 C1.91541816 100.62780063 1.88221394 102.25868083 1.88647461 103.88867188 C1.88655014 104.85647583 1.88662567 105.82427979 1.88670349 106.82141113 C1.89186478 107.86003296 1.89702606 108.89865479 1.90234375 109.96875 C1.9037587 111.04120972 1.90517365 112.11366943 1.90663147 113.21862793 C1.9122262 116.64578037 1.92476777 120.07286737 1.9375 123.5 C1.94251657 125.8085928 1.9470792 128.11718663 1.95117188 130.42578125 C1.96100229 135.51242931 1.97521117 140.5990437 1.99327087 145.68566895 C1.99939068 147.79043826 2 149.89522179 2 152 C2.185625 153.155 2.37125 154.31 2.5625 155.5 C2.9515823 158.61265838 2.85718463 160.10700189 2 163 C2.33 163.66 2.66 164.32 3 165 C2.68853491 166.67089149 2.35186446 168.33714694 2 170 C1.91189579 171.71836455 1.86941814 173.43953598 1.8671875 175.16015625 C1.86589844 176.11857422 1.86460937 177.07699219 1.86328125 178.06445312 C1.86714844 179.05380859 1.87101563 180.04316406 1.875 181.0625 C1.87113281 182.05572266 1.86726562 183.04894531 1.86328125 184.07226562 C1.86457031 185.02939453 1.86585938 185.98652344 1.8671875 186.97265625 C1.86831543 187.84156494 1.86944336 188.71047363 1.87060547 189.60571289 C1.9934202 191.87824885 2.4240348 193.80847283 3 196 C2.83628135 198.48033759 2.49580893 200.90538526 2.15625 203.3671875 C1.89749672 206.05700635 1.89749672 206.05700635 2.4921875 208.90625 C3.04801954 212.29254979 2.92082573 215.2110112 2.625 218.625 C2.53476563 219.73101563 2.44453125 220.83703125 2.3515625 221.9765625 C2.06764586 224.41824557 1.67788866 226.64462415 1 229 C1.66 229.33 2.32 229.66 3 230 C2.34 231.98 1.68 233.96 1 236 C1.66 236.33 2.32 236.66 3 237 C2.835 237.94875 2.67 238.8975 2.5 239.875 C1.81458208 244.5763877 1.91416559 249.26003286 2 254 C2.99 253.67 3.98 253.34 5 253 C5.74633013 250.97312924 5.74633013 250.97312924 6.1875 248.4375 C8.14597308 240.36944242 12.14656596 233.29498083 16 226 C15.34 225.67 14.68 225.34 14 225 C14.33 223.35 14.66 221.7 15 220 C15.66 220 16.32 220 17 220 C17.33 219.34 17.66 218.68 18 218 C18.66 218 19.32 218 20 218 C20 217.34 20 216.68 20 216 C20.66 216 21.32 216 22 216 C21.67 215.01 21.34 214.02 21 213 C21.30027117 211.32706064 21.63557767 209.66014616 22 208 C22 206.68 22 205.36 22 204 C23.32 203.67 24.64 203.34 26 203 C26 202.34 26 201.68 26 201 C26.72123047 200.34064453 26.72123047 200.34064453 27.45703125 199.66796875 C29.43187915 197.53313317 29.47988093 196.17764321 29.6875 193.3125 C29.75324219 192.50425781 29.81898438 191.69601562 29.88671875 190.86328125 C29.92410156 190.24839844 29.96148437 189.63351562 30 189 C30.99 188.67 31.98 188.34 33 188 C33 187.01 33 186.02 33 185 C33.66 185 34.32 185 35 185 C35 184.34 35 183.68 35 183 C35.66 182.67 36.32 182.34 37 182 C37.46523063 180.10466658 37.46523063 180.10466658 37.625 177.9375 C37.810625 175.9884375 37.810625 175.9884375 38 174 C38.99 173.67 39.98 173.34 41 173 C41.6814823 171.10820797 41.6814823 171.10820797 42 169 C42.33 168.01 42.66 167.02 43 166 C43.66 166 44.32 166 45 166 C45.0825 165.34 45.165 164.68 45.25 164 C46.7056364 158.17745441 49.89015624 153.08883524 53 148 C54.79482758 145.15510516 54.79482758 145.15510516 54.5625 141.9375 C54.376875 141.298125 54.19125 140.65875 54 140 C54.33 139.01 54.66 138.02 55 137 C56.65 136.67 58.3 136.34 60 136 C61.4512573 131.02426068 62.76368629 126.03356296 64 121 C65.98 121 67.96 121 70 121 C70 118.36 70 115.72 70 113 C71.98 112.67 73.96 112.34 76 112 C75.67 110.68 75.34 109.36 75 108 C75.66 107.67 76.32 107.34 77 107 C77.68472665 105.11235097 77.68472665 105.11235097 78.125 102.9375 C78.29257812 102.20402344 78.46015625 101.47054687 78.6328125 100.71484375 C78.75398438 100.14894531 78.87515625 99.58304688 79 99 C80.32 98.67 81.64 98.34 83 98 C83 97.34 83 96.68 83 96 C83.66 96 84.32 96 85 96 C84.67 95.01 84.34 94.02 84 93 C85.4375 89.8125 85.4375 89.8125 87 87 C87.66 87 88.32 87 89 87 C89.66 86.34 90.32 85.68 91 85 C91.66333008 86.69848633 91.66333008 86.69848633 92 89 C90.98706055 91.2956543 90.98706055 91.2956543 89.38671875 93.82421875 C88.80325684 94.76144775 88.21979492 95.69867676 87.61865234 96.66430664 C86.98137207 97.66196045 86.3440918 98.65961426 85.6875 99.6875 C84.38062359 101.78330143 83.07463894 103.87965919 81.76953125 105.9765625 C81.12322754 107.0068457 80.47692383 108.03712891 79.81103516 109.09863281 C66.72481836 130.06339426 55.28393226 152.02952014 44 174 C43.46149414 175.0430127 42.92298828 176.08602539 42.36816406 177.16064453 C26.08827805 208.78429935 11.60196235 241.3601393 0 275 C-0.33 275 -0.66 275 -1 275 C-1.02287695 240.5442901 -1.04050362 206.08858192 -1.05106533 171.63286607 C-1.05231607 167.56725575 -1.05361039 163.50164545 -1.05493164 159.43603516 C-1.05519395 158.62662779 -1.05545626 157.81722043 -1.05572652 156.98328558 C-1.06008066 143.8686366 -1.0679668 130.753992 -1.0771528 117.63934562 C-1.08649645 104.18765896 -1.09205712 90.7359746 -1.09408849 77.28428483 C-1.09546224 68.98045163 -1.09980483 60.67663079 -1.10791647 52.37280139 C-1.11319269 46.68253024 -1.11480229 40.99226551 -1.11350138 35.30199209 C-1.11285938 32.01650455 -1.11440253 28.73104327 -1.11920547 25.44555855 C-1.12415446 21.88676357 -1.12299376 18.3280222 -1.12025452 14.76922607 C-1.12316736 13.72643045 -1.1260802 12.68363483 -1.12908131 11.60923934 C-1.12709026 10.65727494 -1.12509921 9.70531055 -1.12304783 8.72449875 C-1.12342755 7.90278395 -1.12380727 7.08106916 -1.1241985 6.23445392 C-1.00181582 4.03266844 -0.61049754 2.11396821 0 0 Z " fill="#185F98" transform="translate(242,447)"/>
<path d="M0 0 C4.36111465 0.4590647 6.86892171 3.34992951 9.875 6.25 C10.8919298 7.21491293 11.9101575 8.17845986 12.9296875 9.140625 C13.67943848 9.84928711 13.67943848 9.84928711 14.44433594 10.57226562 C16.8850743 12.81229041 19.43597205 14.90285475 22 17 C20.515 17.495 20.515 17.495 19 18 C18.01 17.34 17.02 16.68 16 16 C16 15.34 16 14.68 16 14 C15.34 14 14.68 14 14 14 C13.505 13.01 13.505 13.01 13 12 C12.01 11.525625 11.02 11.05125 10 10.5625 C7 9 7 9 6 6 C4.25007285 4.89453631 4.25007285 4.89453631 2 5 C-0.85329312 6.51591299 -0.85329312 6.51591299 -3 9 C-3.41870553 11.66928121 -3.41870553 11.66928121 -3 14 C-3.99 14 -4.98 14 -6 14 C-6 14.99 -6 15.98 -6 17 C-6.99 17 -7.98 17 -9 17 C-9 18.32 -9 19.64 -9 21 C-10.485 21.495 -10.485 21.495 -12 22 C-13.66666667 24.91666667 -13.66666667 24.91666667 -15 28 C-15.33 28.66 -15.66 29.32 -16 30 C-17.485 30.495 -17.485 30.495 -19 31 C-20.06546953 34.1964086 -20.07427838 36.65747276 -20 40 C-20.33 39.34 -20.66 38.68 -21 38 C-23.47627099 38.63921965 -23.47627099 38.63921965 -26 40 C-27.27587495 42.3140387 -27.27587495 42.3140387 -28 45 C-28.66666667 46.66666667 -29.33333333 48.33333333 -30 50 C-30.66 50 -31.32 50 -32 50 C-32.12375 50.78375 -32.2475 51.5675 -32.375 52.375 C-33 55 -33 55 -35 57 C-35.268125 57.99 -35.53625 58.98 -35.8125 60 C-37 63 -37 63 -39.625 64.375 C-40.800625 64.684375 -40.800625 64.684375 -42 65 C-42 65.66 -42 66.32 -42 67 C-42.99 67.495 -42.99 67.495 -44 68 C-44.65555119 70.52733235 -44.65555119 70.52733235 -45 73 C-45.66 73 -46.32 73 -47 73 C-46.67 73.99 -46.34 74.98 -46 76 C-46.33 76.66 -46.66 77.32 -47 78 C-47.99 78.33 -48.98 78.66 -50 79 C-51.05754912 80.69726358 -51.05754912 80.69726358 -51.875 82.75 C-53.67051051 86.63106504 -55.97304008 88.97304008 -59 92 C-60.20049407 95.10007201 -60.20049407 95.10007201 -61 98 C-61.66 98.66 -62.32 99.32 -63 100 C-63 100.99 -63 101.98 -63 103 C-63.639375 103.7425 -64.27875 104.485 -64.9375 105.25 C-67.2951452 107.92844435 -67.2951452 107.92844435 -67.5 111.6875 C-67.665 112.780625 -67.83 113.87375 -68 115 C-69.33333333 115.66666667 -70.66666667 116.33333333 -72 117 C-75.34539252 122.06971521 -76.50897794 127.0195092 -76 133 C-77.175625 133.37125 -77.175625 133.37125 -78.375 133.75 C-81.05620368 134.75886193 -81.05620368 134.75886193 -82.25 136.8125 C-83.29090391 139.84846975 -83.83258443 142.89505723 -84.3125 146.0625 C-85.25565394 148.72047929 -86.96539847 150.09256107 -89 152 C-89.495 152.99 -89.495 152.99 -90 154 C-90.99 154 -91.98 154 -93 154 C-93.99 157.3 -94.98 160.6 -96 164 C-95.01 164 -94.02 164 -93 164 C-94.39121745 166.7824349 -96.30164212 167.55210065 -99 169 C-99.66 169 -100.32 169 -101 169 C-99.38504911 163.55567049 -96.98123105 158.6570814 -94.44921875 153.59765625 C-93.99869141 152.69113815 -93.54816406 151.78462006 -93.08398438 150.85063171 C-91.62375043 147.91859331 -90.15639911 144.99020599 -88.6875 142.0625 C-88.1895694 141.0674646 -87.69163879 140.0724292 -87.17861938 139.04724121 C-80.24366192 125.20389753 -73.13212961 111.54002389 -65.27734375 98.19189453 C-63.71490159 95.51077723 -62.22020085 92.79590551 -60.72729492 90.07568359 C-56.34511222 82.11799375 -51.62416108 74.36729435 -46.875 66.625 C-46.20557373 65.53082764 -45.53614746 64.43665527 -44.84643555 63.30932617 C-40.77393128 56.70902599 -36.49691054 50.31659061 -32 44 C-30.93622899 42.46401844 -29.87500895 40.92626688 -28.81640625 39.38671875 C-20.7001067 27.64485778 -12.21452075 16.23486621 -3.47363281 4.95092773 C-2.25854025 3.34227885 -1.11826805 1.67740207 0 0 Z " fill="#E88913" transform="translate(372,482)"/>
<path d="M0 0 C0.33 0 0.66 0 1 0 C1.01030746 1.1164238 1.02061493 2.2328476 1.03123474 3.38310242 C1.12898525 13.90364254 1.23172096 24.42412374 1.33933926 34.94456768 C1.39450672 40.35324272 1.44791685 45.76192323 1.49731445 51.1706543 C1.54504909 56.390228 1.59739519 61.60973695 1.65294075 66.82923317 C1.67332308 68.82071126 1.6920429 70.81220709 1.70907402 72.80371666 C1.73320934 75.59276104 1.76325136 78.38168387 1.79467773 81.1706543 C1.8004332 81.99424438 1.80618866 82.81783447 1.81211853 83.66638184 C1.85255776 86.82320038 1.93859178 89.70094578 2.57533264 92.80183411 C3.05271277 95.27285216 2.68366254 96.60783126 2 99 C1.91541816 100.62780063 1.88221394 102.25868083 1.88647461 103.88867188 C1.88655014 104.85647583 1.88662567 105.82427979 1.88670349 106.82141113 C1.89186478 107.86003296 1.89702606 108.89865479 1.90234375 109.96875 C1.9037587 111.04120972 1.90517365 112.11366943 1.90663147 113.21862793 C1.9122262 116.64578037 1.92476777 120.07286737 1.9375 123.5 C1.94251657 125.8085928 1.9470792 128.11718663 1.95117188 130.42578125 C1.96100229 135.51242931 1.97521117 140.5990437 1.99327087 145.68566895 C1.99939068 147.79043826 2 149.89522179 2 152 C2.185625 153.155 2.37125 154.31 2.5625 155.5 C2.9515823 158.61265838 2.85718463 160.10700189 2 163 C2.33 163.66 2.66 164.32 3 165 C2.68853491 166.67089149 2.35186446 168.33714694 2 170 C1.91189579 171.71836455 1.86941814 173.43953598 1.8671875 175.16015625 C1.86589844 176.11857422 1.86460937 177.07699219 1.86328125 178.06445312 C1.86714844 179.05380859 1.87101563 180.04316406 1.875 181.0625 C1.87113281 182.05572266 1.86726562 183.04894531 1.86328125 184.07226562 C1.86457031 185.02939453 1.86585938 185.98652344 1.8671875 186.97265625 C1.86831543 187.84156494 1.86944336 188.71047363 1.87060547 189.60571289 C1.9934202 191.87824885 2.4240348 193.80847283 3 196 C2.83628135 198.48033759 2.49580893 200.90538526 2.15625 203.3671875 C1.89749672 206.05700635 1.89749672 206.05700635 2.4921875 208.90625 C3.04801954 212.29254979 2.92082573 215.2110112 2.625 218.625 C2.53476563 219.73101563 2.44453125 220.83703125 2.3515625 221.9765625 C2.06764586 224.41824557 1.67788866 226.64462415 1 229 C1.66 229.33 2.32 229.66 3 230 C2.34 231.98 1.68 233.96 1 236 C1.66 236.33 2.32 236.66 3 237 C2.83757812 237.95390625 2.67515625 238.9078125 2.5078125 239.890625 C1.84942054 244.51100107 1.85339571 249.09067401 1.875 253.75 C1.87113281 254.59949219 1.86726562 255.44898438 1.86328125 256.32421875 C1.86457031 257.14019531 1.86585938 257.95617187 1.8671875 258.796875 C1.86831543 259.53260742 1.86944336 260.26833984 1.87060547 261.02636719 C1.93023708 263.21318851 1.93023708 263.21318851 3 266 C2.44140625 268.26171875 2.44140625 268.26171875 1.5625 270.6875 C1.27503906 271.49574219 0.98757812 272.30398438 0.69140625 273.13671875 C0.46324219 273.75160156 0.23507813 274.36648438 0 275 C-0.33 275 -0.66 275 -1 275 C-1.02287695 240.5442901 -1.04050362 206.08858192 -1.05106533 171.63286607 C-1.05231607 167.56725575 -1.05361039 163.50164545 -1.05493164 159.43603516 C-1.05519395 158.62662779 -1.05545626 157.81722043 -1.05572652 156.98328558 C-1.06008066 143.8686366 -1.0679668 130.753992 -1.0771528 117.63934562 C-1.08649645 104.18765896 -1.09205712 90.7359746 -1.09408849 77.28428483 C-1.09546224 68.98045163 -1.09980483 60.67663079 -1.10791647 52.37280139 C-1.11319269 46.68253024 -1.11480229 40.99226551 -1.11350138 35.30199209 C-1.11285938 32.01650455 -1.11440253 28.73104327 -1.11920547 25.44555855 C-1.12415446 21.88676357 -1.12299376 18.3280222 -1.12025452 14.76922607 C-1.12316736 13.72643045 -1.1260802 12.68363483 -1.12908131 11.60923934 C-1.12709026 10.65727494 -1.12509921 9.70531055 -1.12304783 8.72449875 C-1.12342755 7.90278395 -1.12380727 7.08106916 -1.1241985 6.23445392 C-1.00181582 4.03266844 -0.61049754 2.11396821 0 0 Z " fill="#054A82" transform="translate(242,447)"/>
<path d="M0 0 C0.33 0 0.66 0 1 0 C1.09169493 34.37882144 1.16210933 68.7576148 1.20426132 103.13653225 C1.20926373 107.20169878 1.21444106 111.26686507 1.21972656 115.33203125 C1.2207758 116.1412815 1.22182505 116.95053175 1.22290608 117.78430474 C1.24027828 130.86178282 1.27179827 143.93919008 1.30861118 157.01662624 C1.34610952 170.4502865 1.36825458 183.88390983 1.37635398 197.31762028 C1.38182338 205.59693299 1.39905389 213.87604543 1.43166587 222.15529644 C1.45292376 227.84427326 1.45917476 233.53314759 1.45400551 239.22216117 C1.45146108 242.49712925 1.45740331 245.77167914 1.4768219 249.04660034 C1.60516465 271.8198803 -0.14727406 290.29917198 -16.5234375 307.66015625 C-20.64041624 311.54985698 -25.01388873 315.27807369 -30 318 C-30.99 317.67 -31.98 317.34 -33 317 C-28.95991073 312.63670359 -24.31743485 309.33896236 -19.1875 306.375 C-16.10443975 304.43707642 -15.1363476 302.40904279 -14 299 C-13.01 299 -12.02 299 -11 299 C-10.855625 298.05125 -10.71125 297.1025 -10.5625 296.125 C-10 293 -10 293 -9 291 C-8.34 291 -7.68 291 -7 291 C-6.95101562 290.37351562 -6.90203125 289.74703125 -6.8515625 289.1015625 C-6.77679687 288.28429687 -6.70203125 287.46703125 -6.625 286.625 C-6.55539062 285.81289063 -6.48578125 285.00078125 -6.4140625 284.1640625 C-6 282 -6 282 -4 280 C-1.02224436 272.95980487 -0.56544569 266.09625787 -0.60127258 258.54721069 C-0.59462576 257.43610731 -0.58797893 256.32500392 -0.58113068 255.18023074 C-0.56256929 251.47992236 -0.56510142 247.77993928 -0.56762695 244.07958984 C-0.55860561 241.41803635 -0.54840781 238.75651145 -0.53674316 236.0949707 C-0.51401507 230.37657443 -0.5020821 224.65823885 -0.49761391 218.93980026 C-0.49113797 210.67205476 -0.46817531 202.40441867 -0.44127061 194.13671739 C-0.39805694 180.72088041 -0.36805928 167.30504804 -0.34643555 153.88916016 C-0.32540958 140.86179331 -0.2981204 127.83446424 -0.26245117 114.80712891 C-0.26025235 114.00326734 -0.25805352 113.19940576 -0.25578807 112.37118475 C-0.24471801 108.33819157 -0.23352528 104.30519874 -0.22227156 100.27220607 C-0.12916324 66.84816898 -0.05752974 33.42411719 0 0 Z " fill="#00478C" transform="translate(783,452)"/>
<path d="M0 0 C1.15722656 1.69848633 1.15722656 1.69848633 2 4 C1.10058594 6.2956543 1.10058594 6.2956543 -0.515625 8.82421875 C-1.10230957 9.76144775 -1.68899414 10.69867676 -2.29345703 11.66430664 C-2.93911621 12.66196045 -3.58477539 13.65961426 -4.25 14.6875 C-5.5660084 16.78328664 -6.88110756 18.87964449 -8.1953125 20.9765625 C-8.84790039 22.0068457 -9.50048828 23.03712891 -10.17285156 24.09863281 C-12.55573683 27.88246612 -14.86080541 31.70673766 -17.125 35.5625 C-17.51010742 36.21573242 -17.89521484 36.86896484 -18.29199219 37.54199219 C-22.3878522 44.55526609 -26.23714166 51.7061876 -30.06689453 58.86743164 C-30.55013184 59.76582764 -31.03336914 60.66422363 -31.53125 61.58984375 C-31.95986328 62.39284912 -32.38847656 63.19585449 -32.83007812 64.02319336 C-34 66 -34 66 -36 68 C-36.495 68.70125 -36.99 69.4025 -37.5 70.125 C-37.995 70.74375 -38.49 71.3625 -39 72 C-39.66 72 -40.32 72 -41 72 C-40.35096 68.49518401 -38.87822891 66.00516626 -37 63 C-35.20517242 60.15510516 -35.20517242 60.15510516 -35.4375 56.9375 C-35.7159375 55.9784375 -35.7159375 55.9784375 -36 55 C-35.67 54.01 -35.34 53.02 -35 52 C-32.525 51.505 -32.525 51.505 -30 51 C-28.5487427 46.02426068 -27.23631371 41.03356296 -26 36 C-24.02 36 -22.04 36 -20 36 C-20 33.36 -20 30.72 -20 28 C-18.02 27.67 -16.04 27.34 -14 27 C-14.33 25.68 -14.66 24.36 -15 23 C-14.34 22.67 -13.68 22.34 -13 22 C-12.31527335 20.11235097 -12.31527335 20.11235097 -11.875 17.9375 C-11.70742188 17.20402344 -11.53984375 16.47054687 -11.3671875 15.71484375 C-11.24601562 15.14894531 -11.12484375 14.58304688 -11 14 C-9.68 13.67 -8.36 13.34 -7 13 C-7 12.34 -7 11.68 -7 11 C-6.34 11 -5.68 11 -5 11 C-5.495 9.515 -5.495 9.515 -6 8 C-4.5625 4.8125 -4.5625 4.8125 -3 2 C-2.34 2 -1.68 2 -1 2 C-0.67 1.34 -0.34 0.68 0 0 Z " fill="#1E6CA8" transform="translate(332,532)"/>
<path d="M0 0 C0.33 0 0.66 0 1 0 C1.01030746 1.1164238 1.02061493 2.2328476 1.03123474 3.38310242 C1.12898525 13.90364254 1.23172096 24.42412374 1.33933926 34.94456768 C1.39450672 40.35324272 1.44791685 45.76192323 1.49731445 51.1706543 C1.54504909 56.390228 1.59739519 61.60973695 1.65294075 66.82923317 C1.67332308 68.82071126 1.6920429 70.81220709 1.70907402 72.80371666 C1.73320934 75.59276104 1.76325136 78.38168387 1.79467773 81.1706543 C1.8004332 81.99424438 1.80618866 82.81783447 1.81211853 83.66638184 C1.85255776 86.82320038 1.93859178 89.70094578 2.57533264 92.80183411 C3.05271277 95.27285216 2.68366254 96.60783126 2 99 C1.91541816 100.62780063 1.88221394 102.25868083 1.88647461 103.88867188 C1.88655014 104.85647583 1.88662567 105.82427979 1.88670349 106.82141113 C1.89186478 107.86003296 1.89702606 108.89865479 1.90234375 109.96875 C1.9037587 111.04120972 1.90517365 112.11366943 1.90663147 113.21862793 C1.9122262 116.64578037 1.92476777 120.07286737 1.9375 123.5 C1.94251657 125.8085928 1.9470792 128.11718663 1.95117188 130.42578125 C1.96100229 135.51242931 1.97521117 140.5990437 1.99327087 145.68566895 C1.99939068 147.79043826 2 149.89522179 2 152 C2.185625 153.155 2.37125 154.31 2.5625 155.5 C2.9515823 158.61265838 2.85718463 160.10700189 2 163 C2.33 163.66 2.66 164.32 3 165 C2.68853491 166.67089149 2.35186446 168.33714694 2 170 C1.91189579 171.71836455 1.86941814 173.43953598 1.8671875 175.16015625 C1.86589844 176.11857422 1.86460937 177.07699219 1.86328125 178.06445312 C1.86714844 179.05380859 1.87101563 180.04316406 1.875 181.0625 C1.87113281 182.05572266 1.86726562 183.04894531 1.86328125 184.07226562 C1.86457031 185.02939453 1.86585938 185.98652344 1.8671875 186.97265625 C1.86831543 187.84156494 1.86944336 188.71047363 1.87060547 189.60571289 C1.91934909 191.98714222 1.91934909 191.98714222 2.56689453 194.17358398 C3.16171467 196.6819546 2.30132064 197.85664836 1 200 C0.28730197 195.49284602 -0.1308397 191.15358008 -0.15821838 186.59199524 C-0.1680072 185.34703278 -0.17779602 184.10207031 -0.18788147 182.81938171 C-0.19378531 181.45681801 -0.19959578 180.09425391 -0.20532227 178.73168945 C-0.21491553 177.28169485 -0.22492644 175.83170295 -0.23532104 174.38171387 C-0.26230862 170.44803612 -0.28337465 166.51434659 -0.30332303 162.58062768 C-0.32536317 158.42410763 -0.35269427 154.26762211 -0.37937927 150.11112976 C-0.42364288 143.10103939 -0.46438549 136.09093593 -0.50268555 129.08081055 C-0.55121264 120.20058376 -0.60496622 111.32039762 -0.66066074 102.4402132 C-0.70921406 94.69836905 -0.75570552 86.95651267 -0.8016727 79.21465278 C-0.81139015 77.58137215 -0.82116545 75.94809186 -0.83100247 74.31481194 C-0.89512571 63.65870188 -0.9493801 53.00260304 -0.9904542 42.3463788 C-1.00045207 39.88888117 -1.0119895 37.43139372 -1.02369308 34.97390366 C-1.04317487 30.77225985 -1.05701892 26.57062876 -1.067047 22.36895216 C-1.07162383 20.77338495 -1.07790883 19.17782162 -1.0859977 17.58226836 C-1.09679512 15.37951003 -1.10124408 13.17682575 -1.10411072 10.9740448 C-1.10817901 9.72061877 -1.1122473 8.46719275 -1.11643887 7.17578411 C-1.02087341 4.56930693 -0.77918823 2.46963059 0 0 Z " fill="#125F94" transform="translate(242,447)"/>
<path d="M0 0 C3.77727089 1.81309003 7.37269822 3.9073259 11 6 C11 6.99 11 7.98 11 9 C11.53625 9.226875 12.0725 9.45375 12.625 9.6875 C15.75032013 11.4146506 18.26073259 13.71727716 21 16 C21.680625 16.33 22.36125 16.66 23.0625 17 C25.89927211 18.46414044 27.78458155 20.72777595 30 23 C32.67642489 25.18490007 32.67642489 25.18490007 35 25 C35.495 26.485 35.495 26.485 36 28 C36.99 28.33 37.98 28.66 39 29 C39.474375 29.66 39.94875 30.32 40.4375 31 C42.2788361 33.3569102 43.20008848 33.34668731 46 34 C46.33 34.99 46.66 35.98 47 37 C47.99 37 48.98 37 50 37 C50.433125 37.763125 50.86625 38.52625 51.3125 39.3125 C53.39522472 42.62943196 55.44780041 43.5001824 59 45 C59 45.66 59 46.32 59 47 C59.66 47 60.32 47 61 47 C63.34869747 48.97290587 64.00102287 50.00306862 65 53 C66.98 53.33 68.96 53.66 71 54 C71.33 54.99 71.66 55.98 72 57 C73.485 57.495 73.485 57.495 75 58 C75 58.66 75 59.32 75 60 C75.97839844 60.29003906 75.97839844 60.29003906 76.9765625 60.5859375 C89.74841438 64.39112051 89.74841438 64.39112051 93.3125 66.125 C96.57290172 67.18652614 99.30751216 67.02860939 102.70703125 66.9375 C106.06303053 67.02897528 108.83288327 67.9218326 112 69 C112 69.33 112 69.66 112 70 C89.23900839 71.47161584 73.27438998 62.00682365 56.49609375 47.29443359 C52.76917951 44.06987431 48.86470498 41.05640067 45 38 C37.95328333 32.38955679 30.95912 26.71864231 24 21 C23.3292041 20.44940918 22.6584082 19.89881836 21.96728516 19.33154297 C19.72743173 17.49278304 17.48858824 15.65279994 15.25 13.8125 C14.54093506 13.23032715 13.83187012 12.6481543 13.10131836 12.04833984 C8.68862442 8.41715193 4.28289199 4.78396871 0 1 C0 0.67 0 0.34 0 0 Z " fill="#14548B" transform="translate(615,707)"/>
<path d="M0 0 C0.33 0.66 0.66 1.32 1 2 C1.66 2.33 2.32 2.66 3 3 C2.67 3.66 2.34 4.32 2 5 C2 6.32 2 7.64 2 9 C1.07960938 9.36544922 1.07960938 9.36544922 0.140625 9.73828125 C-3.64961796 11.97231131 -4.72991117 15.93836175 -6 20 C-6.28583358 22.45638234 -6.21104931 24.5201706 -6 27 C-6.78375 27.2475 -7.5675 27.495 -8.375 27.75 C-11.05620368 28.75886193 -11.05620368 28.75886193 -12.25 30.8125 C-13.29090391 33.84846975 -13.83258443 36.89505723 -14.3125 40.0625 C-15.25565394 42.72047929 -16.96539847 44.09256107 -19 46 C-19.33 46.66 -19.66 47.32 -20 48 C-20.99 48 -21.98 48 -23 48 C-23.99 51.3 -24.98 54.6 -26 58 C-25.01 58 -24.02 58 -23 58 C-24.39121745 60.7824349 -26.30164212 61.55210065 -29 63 C-29.66 63 -30.32 63 -31 63 C-29.36061901 57.42086225 -26.8453039 52.41841241 -24.23828125 47.24609375 C-23.76939987 46.30878922 -23.30051849 45.37148468 -22.81742859 44.40577698 C-21.82492414 42.42378312 -20.83048035 40.44275937 -19.83422852 38.46264648 C-18.33090836 35.47409522 -16.83388033 32.4824606 -15.33789062 29.49023438 C-10.37226613 19.57790382 -5.35536821 9.7084071 0 0 Z " fill="#F19F1C" transform="translate(302,588)"/>
<path d="M0 0 C0.66 0 1.32 0 2 0 C0.01795576 16.68467088 -7.02512746 31.03800077 -20 42 C-25.80943371 46.46654953 -25.80943371 46.46654953 -29 48 C-29.99 47.67 -30.98 47.34 -32 47 C-27.95991073 42.63670359 -23.31743485 39.33896236 -18.1875 36.375 C-15.10443975 34.43707642 -14.1363476 32.40904279 -13 29 C-12.01 29 -11.02 29 -10 29 C-9.7834375 27.576875 -9.7834375 27.576875 -9.5625 26.125 C-9 23 -9 23 -8 21 C-7.34 21 -6.68 21 -6 21 C-5.95101562 20.37351562 -5.90203125 19.74703125 -5.8515625 19.1015625 C-5.77679687 18.28429687 -5.70203125 17.46703125 -5.625 16.625 C-5.55539062 15.81289063 -5.48578125 15.00078125 -5.4140625 14.1640625 C-5 12 -5 12 -3 10 C-2.39688385 8.31238142 -1.86149763 6.59985524 -1.375 4.875 C-1.11460937 3.96492187 -0.85421875 3.05484375 -0.5859375 2.1171875 C-0.39257812 1.41851563 -0.19921875 0.71984375 0 0 Z " fill="#195C91" transform="translate(782,722)"/>
<path d="M0 0 C1.21388033 3.641641 0.71235687 4.2666318 -0.84375 7.65625 C-1.26261475 8.58808105 -1.68147949 9.51991211 -2.11303711 10.47998047 C-2.57073486 11.47658691 -3.02843262 12.47319336 -3.5 13.5 C-7.32033024 21.98947353 -10.80712637 30.48897569 -13.75390625 39.32226562 C-14.42019079 41.2454051 -15.20005345 43.128507 -16 45 C-17.485 45.495 -17.485 45.495 -19 46 C-19 42.37 -19 38.74 -19 35 C-17.02 34.505 -17.02 34.505 -15 34 C-14.89945313 33.42636719 -14.79890625 32.85273437 -14.6953125 32.26171875 C-12.57768519 22.70338724 -7.78878657 14.51824358 -3.09741211 6.02368164 C-2.01965973 4.03625351 -0.99950002 2.02773602 0 0 Z " fill="#0F508F" transform="translate(262,666)"/>
<path d="M0 0 C5.95324421 1.39331247 10.75741484 3.88535757 16 7 C16 7.33 16 7.66 16 8 C5.11 8 -5.78 8 -17 8 C-17 7.67 -17 7.34 -17 7 C-12.38 7 -7.76 7 -3 7 C-1 3.23570226 -1 3.23570226 0 0 Z " fill="#FCBE26" transform="translate(538,622)"/>
<path d="M0 0 C2.51896049 1.119538 4.39734655 2.31981552 6.5625 4.0625 C8.92026019 6.16384349 8.92026019 6.16384349 12 7 C13.5 9 13.5 9 15 11 C15.99 11.33 16.98 11.66 18 12 C18 12.66 18 13.32 18 14 C20.475 14.495 20.475 14.495 23 15 C23.33 15.99 23.66 16.98 24 18 C24.99 18.33 25.98 18.66 27 19 C27 19.66 27 20.32 27 21 C27.66 21 28.32 21 29 21 C30.38938077 22.96147874 31.7260411 24.96166576 33 27 C30.08324748 25.65303168 27.74064765 24.11555313 25.27734375 22.05859375 C24.57867188 21.47883789 23.88 20.89908203 23.16015625 20.30175781 C22.42667969 19.68655273 21.69320312 19.07134766 20.9375 18.4375 C19.41557753 17.17031712 17.89344176 15.90339037 16.37109375 14.63671875 C15.62843262 14.01716309 14.88577148 13.39760742 14.12060547 12.75927734 C12.24900986 11.20658129 10.36653716 9.66989703 8.47265625 8.14453125 C7.49167969 7.35433594 6.51070312 6.56414063 5.5 5.75 C4.6440625 5.06421875 3.788125 4.3784375 2.90625 3.671875 C1 2 1 2 0 0 Z " fill="#165991" transform="translate(560,662)"/>
<path d="M0 0 C2.475 0.99 2.475 0.99 5 2 C3.8545847 7.1103144 2.54521255 11.37234081 0 16 C-0.66 16 -1.32 16 -2 16 C-2.66 17.32 -3.32 18.64 -4 20 C-4.66 20 -5.32 20 -6 20 C-5.35096 16.49518401 -3.87822891 14.00516626 -2 11 C-0.20517242 8.15510516 -0.20517242 8.15510516 -0.4375 4.9375 C-0.7159375 3.9784375 -0.7159375 3.9784375 -1 3 C-0.67 2.01 -0.34 1.02 0 0 Z " fill="#22689A" transform="translate(297,584)"/>
<path d="M0 0 C0.66 0.33 1.32 0.66 2 1 C0.29639246 2.588417 -1.41311829 4.17050381 -3.125 5.75 C-4.07632812 6.63171875 -5.02765625 7.5134375 -6.0078125 8.421875 C-8.88412158 10.90015697 -11.81367118 12.94430399 -15 15 C-16.46794448 16.0702739 -17.9276623 17.15201967 -19.375 18.25 C-20.06335938 18.77078125 -20.75171875 19.2915625 -21.4609375 19.828125 C-21.96882813 20.21484375 -22.47671875 20.6015625 -23 21 C-23 20.01 -23 19.02 -23 18 C-20.89543256 16.11995967 -18.81667229 14.43243693 -16.5625 12.75 C-15.92812012 12.26490967 -15.29374023 11.77981934 -14.64013672 11.2800293 C-13.36298581 10.30394655 -12.08305523 9.33148949 -10.80029297 8.36279297 C-8.38903759 6.53751123 -6.00678066 4.67600519 -3.625 2.8125 C-2.41696018 1.87462181 -1.20876045 0.93694924 0 0 Z " fill="#2B85C1" transform="translate(457,252)"/>
<path d="M0 0 C0 0.33 0 0.66 0 1 C-1.00160156 1.04898438 -2.00320313 1.09796875 -3.03515625 1.1484375 C-4.37762759 1.22354079 -5.7200743 1.29908526 -7.0625 1.375 C-8.37347656 1.44460937 -9.68445313 1.51421875 -11.03515625 1.5859375 C-14.90457447 1.99003438 -18.28536407 2.88151721 -22 4 C-22.99 4 -23.98 4 -25 4 C-26.67099977 4.31088368 -28.33871537 4.64080332 -30 5 C-29 2 -29 2 -27.12890625 1.015625 C-18.00687532 -1.70571147 -9.34522058 -0.85330397 0 0 Z " fill="#3D91C8" transform="translate(519,229)"/>
<path d="M0 0 C0 3 0 3 -1.21484375 4.61328125 C-5.63637041 8.97465108 -10.3571917 13.2879526 -16 16 C-16.99 15.67 -17.98 15.34 -19 15 C-14.97107685 10.64876299 -10.33483645 7.37967608 -5.25 4.375 C-3.15583387 3.09523181 -1.63892856 1.81144736 0 0 Z " fill="#13548B" transform="translate(769,754)"/>
<path d="M0 0 C0 0.66 0 1.32 0 2 C-6.95592374 5.13698522 -12.37256022 6.12927864 -20 6 C-20 5.67 -20 5.34 -20 5 C-18.02 5 -16.04 5 -14 5 C-14 4.34 -14 3.68 -14 3 C-13.360625 2.87625 -12.72125 2.7525 -12.0625 2.625 C-11.381875 2.41875 -10.70125 2.2125 -10 2 C-9.67 1.34 -9.34 0.68 -9 0 C-5.65506316 -0.99444068 -3.31044803 -1.10348268 0 0 Z " fill="#0F4B82" transform="translate(748,770)"/>
<path d="M0 0 C1.32 0.33 2.64 0.66 4 1 C3.67 2.65 3.34 4.3 3 6 C2.34 6 1.68 6 1 6 C0.67 7.65 0.34 9.3 0 11 C-0.66 11 -1.32 11 -2 11 C-2.33 11.99 -2.66 12.98 -3 14 C-4.47521929 11.04956141 -3.73359142 9.17889616 -3 6 C-2.06057514 3.97084231 -1.07401615 1.96124688 0 0 Z " fill="#F1AA21" transform="translate(269,654)"/>
<path d="M0 0 C1.21580562 3.64741687 0.68294489 4.40797225 -0.80078125 7.8515625 C-1.20103516 8.78484375 -1.60128906 9.718125 -2.01367188 10.6796875 C-2.44228516 11.65164063 -2.87089844 12.62359375 -3.3125 13.625 C-3.72951172 14.6046875 -4.14652344 15.584375 -4.57617188 16.59375 C-7.734375 23.8671875 -7.734375 23.8671875 -10 25 C-8.04501554 15.87673918 -4.35038852 8.16442777 0 0 Z " fill="#0E4E9A" transform="translate(262,666)"/>
<path d="M0 0 C0.66 0.66 1.32 1.32 2 2 C1.01 3.485 1.01 3.485 0 5 C-0.99 5 -1.98 5 -3 5 C-3 5.66 -3 6.32 -3 7 C-4.95927063 8.7143618 -6.95880212 10.38405168 -9 12 C-9.66 11.67 -10.32 11.34 -11 11 C-9.52202738 7.32943063 -7.52384523 5.58914217 -4.375 3.25 C-3.55773437 2.63640625 -2.74046875 2.0228125 -1.8984375 1.390625 C-0.95871094 0.70226562 -0.95871094 0.70226562 0 0 Z " fill="#3183BD" transform="translate(350,337)"/>
<path d="M0 0 C0.99 0.66 1.98 1.32 3 2 C1.700625 2.61875 1.700625 2.61875 0.375 3.25 C-3.05400148 4.94675802 -3.05400148 4.94675802 -6.25 7.1875 C-9 9 -9 9 -11 9 C-11 9.66 -11 10.32 -11 11 C-11.66 10.67 -12.32 10.34 -13 10 C-11.63603413 5.90810238 -9.65151017 5.38452673 -5.9375 3.3125 C-4.83277344 2.68988281 -3.72804688 2.06726563 -2.58984375 1.42578125 C-1.73519531 0.95527344 -0.88054687 0.48476562 0 0 Z " fill="#378DC7" transform="translate(482,234)"/>
<path d="M0 0 C0.99 0.66 1.98 1.32 3 2 C1.50923566 5.2826932 -0.38620321 7.93077441 -2.625 10.75 C-3.57246094 11.94882812 -3.57246094 11.94882812 -4.5390625 13.171875 C-5.02117187 13.77515625 -5.50328125 14.3784375 -6 15 C-7.33332095 12.3333581 -6.67102033 10.83319697 -6 8 C-4.35 7.67 -2.7 7.34 -1 7 C-0.67 4.69 -0.34 2.38 0 0 Z " fill="#2778B8" transform="translate(362,489)"/>
<path d="M0 0 C1.32 0 2.64 0 4 0 C4.25 6.625 4.25 6.625 2 10 C1.01 10.495 1.01 10.495 0 11 C0 7.37 0 3.74 0 0 Z " fill="#135585" transform="translate(243,701)"/>
<path d="M0 0 C0.66 0 1.32 0 2 0 C0.58707905 4.8274799 -1.42974154 8.7162359 -4 13 C-5.09658936 9.71023192 -4.79953138 8.28696233 -4 5 C-3.34 5 -2.68 5 -2 5 C-2 4.01 -2 3.02 -2 2 C-1.34 2 -0.68 2 0 2 C0 1.34 0 0.68 0 0 Z " fill="#1A6192" transform="translate(277,630)"/>
<path d="M0 0 C0.66 0.66 1.32 1.32 2 2 C-0.82383772 4.92842431 -3.64903895 7.68010389 -7 10 C-7.99 9.67 -8.98 9.34 -10 9 C-6.83047153 5.73991357 -3.60062011 2.77762123 0 0 Z " fill="#3288C1" transform="translate(405,293)"/>
<path d="M0 0 C2.9375 0.375 2.9375 0.375 6 1 C6.33 1.66 6.66 2.32 7 3 C6.01 3 5.02 3 4 3 C3.67 3.99 3.34 4.98 3 6 C1.68 5.34 0.36 4.68 -1 4 C-0.67 2.68 -0.34 1.36 0 0 Z " fill="#256D9E" transform="translate(306,568)"/>
<path d="M0 0 C1 3 1 3 -0.43359375 6.13671875 C-1.09135973 7.3260128 -1.75977815 8.50946371 -2.4375 9.6875 C-2.77587891 10.29400391 -3.11425781 10.90050781 -3.46289062 11.52539062 C-4.29957915 13.0220025 -5.14862831 14.51169189 -6 16 C-6.6796875 14.3203125 -6.6796875 14.3203125 -7 12 C-5.8203125 9.4921875 -5.8203125 9.4921875 -4.125 6.875 C-3.57070313 6.00617187 -3.01640625 5.13734375 -2.4453125 4.2421875 C-1.96835937 3.50226562 -1.49140625 2.76234375 -1 2 C-0.67 1.34 -0.34 0.68 0 0 Z " fill="#0F57A2" transform="translate(277,634)"/>
<path d="M0 0 C0 2 0 4 0 6 C-1.98 6.66 -3.96 7.32 -6 8 C-6 7.34 -6 6.68 -6 6 C-6.66 5.67 -7.32 5.34 -8 5 C-6.20963542 3.99088542 -4.41927083 2.98177083 -2.62890625 1.97265625 C-1.02121854 1.1027487 -1.02121854 1.1027487 0 0 Z " fill="#1F699E" transform="translate(665,624)"/>
<path d="M0 0 C0.33 0.66 0.66 1.32 1 2 C0.02501855 3.5027237 -0.95509389 5.00211963 -1.9375 6.5 C-2.75541016 7.75296875 -2.75541016 7.75296875 -3.58984375 9.03125 C-4.05519531 9.6809375 -4.52054687 10.330625 -5 11 C-5.33 11 -5.66 11 -6 11 C-6 9.35 -6 7.7 -6 6 C-5.34 6 -4.68 6 -4 6 C-3.67 4.68 -3.34 3.36 -3 2 C-2.34 2.33 -1.68 2.66 -1 3 C-0.67 2.01 -0.34 1.02 0 0 Z " fill="#1C70B3" transform="translate(341,522)"/>
<path d="M0 0 C-8.42857143 3.42857143 -8.42857143 3.42857143 -13 3 C-12.360625 2.71125 -11.72125 2.4225 -11.0625 2.125 C-8.84793921 1.17176549 -8.84793921 1.17176549 -8 -1 C-4.17612582 -2.20753921 -3.47451365 -2.31634243 0 0 Z " fill="#1D6696" transform="translate(747,771)"/>
<path d="M0 0 C2.31 0 4.62 0 7 0 C6.67 0.99 6.34 1.98 6 3 C5.34 3 4.68 3 4 3 C3.67 3.66 3.34 4.32 3 5 C2.34 5 1.68 5 1 5 C1 4.34 1 3.68 1 3 C0.34 3 -0.32 3 -1 3 C-0.67 2.01 -0.34 1.02 0 0 Z " fill="#2974A7" transform="translate(337,520)"/>
<path d="M0 0 C3.68754757 0.49831724 5.60490662 1.10067643 8 4 C7.67 4.66 7.34 5.32 7 6 C4.36 4.68 1.72 3.36 -1 2 C-0.67 1.34 -0.34 0.68 0 0 Z " fill="#F8F6EA" transform="translate(547,624)"/>
<path d="M0 0 C3.7910119 1.44950455 7.3874638 3.15172566 11 5 C7.21637439 6.26120854 5.68605054 5.25482572 2 4 C1.01 4.495 1.01 4.495 0 5 C0 3.35 0 1.7 0 0 Z " fill="#FBAB1F" transform="translate(541,623)"/>
<path d="M0 0 C3.3 0.99 6.6 1.98 10 3 C9.01 3.66 8.02 4.32 7 5 C3.56816682 4.15955106 1.51471866 3.51471866 -1 1 C-0.67 0.67 -0.34 0.34 0 0 Z " fill="#1C5E90" transform="translate(693,768)"/>
<path d="M0 0 C2.97 0.495 2.97 0.495 6 1 C4.60878255 3.7824349 2.69835788 4.55210065 0 6 C-0.66 6 -1.32 6 -2 6 C-1.34 4.02 -0.68 2.04 0 0 Z " fill="#EDA425" transform="translate(273,645)"/>
<path d="M0 0 C0 0.33 0 0.66 0 1 C-4.95 1 -9.9 1 -15 1 C-8.63557828 -2.18221086 -6.59759991 -1.83867538 0 0 Z " fill="#1A588A" transform="translate(727,776)"/>
<path d="M0 0 C0.66 0 1.32 0 2 0 C2.33 0.99 2.66 1.98 3 3 C3.99 3.33 4.98 3.66 6 4 C6.33 4.99 6.66 5.98 7 7 C3.09161134 7 1.88405893 5.49432124 -1 3 C-0.67 2.01 -0.34 1.02 0 0 Z " fill="#1E5E93" transform="translate(648,732)"/>
<path d="M0 0 C0.33 0.66 0.66 1.32 1 2 C2.65 1.67 4.3 1.34 6 1 C5.319375 1.5878125 5.319375 1.5878125 4.625 2.1875 C2.72357081 4.30832487 1.93795972 6.33042235 1 9 C0.67 9 0.34 9 0 9 C0 6.03 0 3.06 0 0 Z " fill="#EEA726" transform="translate(242,719)"/>
<path d="M0 0 C2.15650737 2.32902796 3.01450945 3.39060303 2.9375 6.625 C1.78238846 9.55128258 0.7865996 9.77770883 -2 11 C-1.85892253 9.54119891 -1.71197585 8.08296449 -1.5625 6.625 C-1.48128906 5.81289063 -1.40007812 5.00078125 -1.31640625 4.1640625 C-1 2 -1 2 0 0 Z " fill="#F1A72C" transform="translate(261,671)"/>
<path d="M0 0 C0.66 1.32 1.32 2.64 2 4 C1.01 5.485 1.01 5.485 0 7 C-0.66 7 -1.32 7 -2 7 C-2.33 7.99 -2.66 8.98 -3 10 C-4 8 -4 8 -3.1875 5 C-2 2 -2 2 0 0 Z " fill="#206BA0" transform="translate(670,614)"/>
<path d="M0 0 C1.875 0.25 1.875 0.25 4 1 C5.25 3.0625 5.25 3.0625 6 5 C5.34 5.66 4.68 6.32 4 7 C0 2.25 0 2.25 0 0 Z " fill="#2E83BD" transform="translate(671,335)"/>
<path d="M0 0 C0.99 0.66 1.98 1.32 3 2 C2.34 2 1.68 2 1 2 C1 2.66 1 3.32 1 4 C0.360625 4.103125 -0.27875 4.20625 -0.9375 4.3125 C-1.618125 4.539375 -2.29875 4.76625 -3 5 C-3.33 5.99 -3.66 6.98 -4 8 C-4.66 7.67 -5.32 7.34 -6 7 C-4.77065985 3.31197956 -3.06140622 2.27643027 0 0 Z " fill="#3588C1" transform="translate(380,313)"/>
<path d="M0 0 C0.99 0 1.98 0 3 0 C3 0.66 3 1.32 3 2 C3.66 2.33 4.32 2.66 5 3 C3.625 4.5 3.625 4.5 2 6 C1.34 6 0.68 6 0 6 C0 4.02 0 2.04 0 0 Z " fill="#286CA1" transform="translate(320,548)"/>
<path d="M0 0 C0.99 0.99 1.98 1.98 3 3 C2.67 3.99 2.34 4.98 2 6 C0.35 5.67 -1.3 5.34 -3 5 C-2.01 3.35 -1.02 1.7 0 0 Z " fill="#EC880F" transform="translate(337,531)"/>
<path d="M0 0 C0.66 1.32 1.32 2.64 2 4 C1.01 4.99 0.02 5.98 -1 7 C-1.66 5.68 -2.32 4.36 -3 3 C-2.01 2.67 -1.02 2.34 0 2 C0 1.34 0 0.68 0 0 Z " fill="#2372B1" transform="translate(347,510)"/>
<path d="M0 0 C0.99 0.33 1.98 0.66 3 1 C3 1.66 3 2.32 3 3 C0 5 0 5 -3 5 C-1.125 1.125 -1.125 1.125 0 0 Z " fill="#378DC6" transform="translate(465,245)"/>
<path d="M0 0 C1.33332095 2.6666419 0.67102033 4.16680303 0 7 C-0.66 7 -1.32 7 -2 7 C-2.33 7.99 -2.66 8.98 -3 10 C-3.33 9.34 -3.66 8.68 -4 8 C-3.22265625 6.0546875 -3.22265625 6.0546875 -2.0625 3.875 C-1.49208984 2.78832031 -1.49208984 2.78832031 -0.91015625 1.6796875 C-0.60980469 1.12539063 -0.30945313 0.57109375 0 0 Z " fill="#F3A42B" transform="translate(269,658)"/>
<path d="M0 0 C0.66 0.33 1.32 0.66 2 1 C-1.465 3.97 -1.465 3.97 -5 7 C-5.66 6.67 -6.32 6.34 -7 6 C-4.69 4.02 -2.38 2.04 0 0 Z " fill="#1E77B5" transform="translate(339,346)"/>
<path d="M0 0 C0.66 0.66 1.32 1.32 2 2 C-0.31 3.65 -2.62 5.3 -5 7 C-5 6.01 -5 5.02 -5 4 C-2.5 1.8125 -2.5 1.8125 0 0 Z " fill="#378CC5" transform="translate(439,266)"/>
</svg>
